M48
;GenerationSoftware,Autodesk,EAGLE,9.5.1*%
;CreationDate,2021-08-16T02:28:48Z*%
FMAT,2
ICI,OFF
METRIC,TZ,000.000
T4C0.600
T3C1.016
T2C1.300
T1C3.000
%
G90
M71
T1
X53340Y13208
T2
X38720Y4318
X42220Y4318
X45720Y4318
X49220Y4318
X52720Y4318
T3
X1524Y26670
X4064Y21590
X28484Y14514
X26688Y12718
X24892Y10922
X23096Y9126
X21300Y7330
X56642Y5588
X56642Y3048
X4064Y41910
X1524Y41910
X4064Y39370
X1524Y39370
X4064Y36830
X1524Y36830
X4064Y34290
X1524Y34290
X4064Y31750
X1524Y31750
X4064Y29210
X1524Y29210
X4064Y26670
X34798Y3048
X4064Y24130
X1524Y24130
X34798Y5588
X1524Y21590
X4064Y19050
X1524Y19050
X4064Y16510
X1524Y16510
X4064Y13970
X1524Y13970
X4064Y11430
X1524Y11430
X4064Y8890
X1524Y8890
X4064Y6350
X1524Y6350
X4064Y3810
X1524Y3810
X4064Y1270
X1524Y1270
T4
X31242Y29464
X46990Y10048
X13335Y17653
X18923Y12319
X24511Y23368
X39624Y34544
X51689Y25400
M30