G04 EAGLE Gerber RS-274X export*
G75*
%MOMM*%
%FSLAX34Y34*%
%LPD*%
%INBottom Copper*%
%IPPOS*%
%AMOC8*
5,1,8,0,0,1.08239X$1,22.5*%
G01*
%ADD10C,1.524000*%
%ADD11P,1.649562X8X292.500000*%
%ADD12R,1.950000X1.950000*%
%ADD13C,1.006400*%
%ADD14C,0.406400*%
%ADD15C,0.609600*%

G36*
X28974Y10163D02*
X28974Y10163D01*
X28992Y10161D01*
X29174Y10182D01*
X29357Y10201D01*
X29374Y10206D01*
X29391Y10208D01*
X29566Y10265D01*
X29742Y10319D01*
X29757Y10327D01*
X29774Y10333D01*
X29934Y10423D01*
X30096Y10511D01*
X30109Y10522D01*
X30125Y10531D01*
X30264Y10651D01*
X30405Y10768D01*
X30416Y10782D01*
X30430Y10794D01*
X30542Y10939D01*
X30657Y11082D01*
X30665Y11098D01*
X30676Y11112D01*
X30758Y11277D01*
X30843Y11439D01*
X30848Y11456D01*
X30856Y11472D01*
X30903Y11651D01*
X30954Y11826D01*
X30956Y11844D01*
X30960Y11861D01*
X30987Y12192D01*
X30987Y16698D01*
X36642Y22353D01*
X44638Y22353D01*
X50293Y16698D01*
X50293Y12192D01*
X50295Y12174D01*
X50293Y12156D01*
X50314Y11974D01*
X50333Y11791D01*
X50338Y11774D01*
X50340Y11757D01*
X50397Y11582D01*
X50451Y11406D01*
X50459Y11391D01*
X50465Y11374D01*
X50555Y11214D01*
X50643Y11052D01*
X50654Y11039D01*
X50663Y11023D01*
X50783Y10884D01*
X50900Y10743D01*
X50914Y10732D01*
X50926Y10718D01*
X51071Y10606D01*
X51214Y10491D01*
X51230Y10483D01*
X51244Y10472D01*
X51409Y10390D01*
X51571Y10305D01*
X51588Y10300D01*
X51604Y10292D01*
X51783Y10245D01*
X51958Y10194D01*
X51976Y10192D01*
X51993Y10188D01*
X52324Y10161D01*
X571500Y10161D01*
X571556Y10166D01*
X571633Y10165D01*
X573357Y10278D01*
X573390Y10284D01*
X573423Y10284D01*
X573750Y10343D01*
X577080Y11235D01*
X577174Y11271D01*
X577270Y11296D01*
X577382Y11349D01*
X577457Y11378D01*
X577503Y11407D01*
X577570Y11438D01*
X580556Y13162D01*
X580637Y13221D01*
X580724Y13270D01*
X580818Y13351D01*
X580883Y13397D01*
X580920Y13437D01*
X580977Y13485D01*
X583415Y15923D01*
X583478Y16000D01*
X583549Y16071D01*
X583619Y16173D01*
X583670Y16235D01*
X583696Y16283D01*
X583738Y16344D01*
X585462Y19330D01*
X585503Y19421D01*
X585553Y19507D01*
X585595Y19624D01*
X585627Y19697D01*
X585640Y19750D01*
X585665Y19820D01*
X586557Y23150D01*
X586562Y23183D01*
X586573Y23215D01*
X586622Y23543D01*
X586735Y25267D01*
X586733Y25324D01*
X586739Y25400D01*
X586739Y25703D01*
X586739Y25708D01*
X586739Y25712D01*
X586719Y25906D01*
X586699Y26104D01*
X586698Y26108D01*
X586698Y26113D01*
X586640Y26297D01*
X586581Y26489D01*
X586579Y26493D01*
X586578Y26497D01*
X586484Y26668D01*
X586389Y26843D01*
X586387Y26846D01*
X586384Y26850D01*
X586257Y27001D01*
X586132Y27152D01*
X586128Y27155D01*
X586125Y27158D01*
X585971Y27281D01*
X585818Y27404D01*
X585814Y27406D01*
X585811Y27409D01*
X585636Y27499D01*
X585461Y27590D01*
X585456Y27591D01*
X585452Y27593D01*
X585265Y27646D01*
X585074Y27701D01*
X585069Y27702D01*
X585065Y27703D01*
X584872Y27718D01*
X584672Y27734D01*
X584668Y27734D01*
X584664Y27734D01*
X584471Y27710D01*
X584273Y27687D01*
X584268Y27686D01*
X584264Y27685D01*
X584081Y27625D01*
X583890Y27562D01*
X583886Y27560D01*
X583882Y27559D01*
X583712Y27462D01*
X583539Y27364D01*
X583536Y27362D01*
X583532Y27359D01*
X583381Y27228D01*
X583235Y27101D01*
X583232Y27098D01*
X583228Y27095D01*
X583108Y26938D01*
X582988Y26783D01*
X582986Y26779D01*
X582983Y26776D01*
X582831Y26480D01*
X582223Y25012D01*
X579508Y22297D01*
X579251Y22190D01*
X579250Y22190D01*
X575960Y20827D01*
X556880Y20827D01*
X553332Y22297D01*
X550617Y25012D01*
X549147Y28560D01*
X549147Y32400D01*
X550617Y35948D01*
X553332Y38663D01*
X556880Y40133D01*
X575960Y40133D01*
X579508Y38663D01*
X582223Y35948D01*
X582831Y34480D01*
X582833Y34476D01*
X582835Y34471D01*
X582928Y34299D01*
X583022Y34125D01*
X583024Y34121D01*
X583027Y34117D01*
X583151Y33969D01*
X583278Y33814D01*
X583281Y33811D01*
X583284Y33808D01*
X583437Y33685D01*
X583591Y33561D01*
X583595Y33558D01*
X583598Y33556D01*
X583773Y33465D01*
X583947Y33373D01*
X583951Y33372D01*
X583955Y33370D01*
X584145Y33316D01*
X584334Y33260D01*
X584338Y33260D01*
X584342Y33259D01*
X584540Y33243D01*
X584735Y33226D01*
X584739Y33226D01*
X584744Y33226D01*
X584941Y33249D01*
X585135Y33271D01*
X585139Y33272D01*
X585143Y33273D01*
X585332Y33334D01*
X585518Y33394D01*
X585522Y33396D01*
X585526Y33398D01*
X585699Y33495D01*
X585870Y33590D01*
X585873Y33593D01*
X585877Y33596D01*
X586026Y33724D01*
X586175Y33852D01*
X586178Y33856D01*
X586182Y33859D01*
X586300Y34011D01*
X586424Y34169D01*
X586426Y34173D01*
X586428Y34177D01*
X586515Y34352D01*
X586604Y34529D01*
X586606Y34533D01*
X586608Y34537D01*
X586659Y34730D01*
X586711Y34917D01*
X586711Y34922D01*
X586712Y34926D01*
X586739Y35257D01*
X586739Y51103D01*
X586739Y51108D01*
X586739Y51112D01*
X586719Y51306D01*
X586699Y51504D01*
X586698Y51508D01*
X586698Y51513D01*
X586640Y51697D01*
X586581Y51889D01*
X586579Y51893D01*
X586578Y51897D01*
X586486Y52064D01*
X586389Y52243D01*
X586387Y52246D01*
X586384Y52250D01*
X586257Y52401D01*
X586132Y52552D01*
X586128Y52555D01*
X586125Y52558D01*
X585971Y52681D01*
X585818Y52804D01*
X585814Y52806D01*
X585811Y52809D01*
X585636Y52899D01*
X585461Y52990D01*
X585456Y52991D01*
X585452Y52993D01*
X585265Y53046D01*
X585074Y53101D01*
X585069Y53102D01*
X585065Y53103D01*
X584872Y53118D01*
X584672Y53134D01*
X584668Y53134D01*
X584664Y53134D01*
X584471Y53110D01*
X584273Y53087D01*
X584268Y53086D01*
X584264Y53085D01*
X584081Y53025D01*
X583890Y52962D01*
X583886Y52960D01*
X583882Y52959D01*
X583712Y52862D01*
X583539Y52764D01*
X583536Y52762D01*
X583532Y52759D01*
X583378Y52626D01*
X583235Y52501D01*
X583232Y52498D01*
X583228Y52495D01*
X583108Y52338D01*
X582988Y52183D01*
X582986Y52179D01*
X582983Y52176D01*
X582831Y51880D01*
X582223Y50412D01*
X579508Y47697D01*
X576776Y46565D01*
X575960Y46227D01*
X556880Y46227D01*
X553332Y47697D01*
X550617Y50412D01*
X549147Y53960D01*
X549147Y57800D01*
X550617Y61348D01*
X553332Y64063D01*
X555986Y65162D01*
X555986Y65163D01*
X556880Y65533D01*
X575960Y65533D01*
X579508Y64063D01*
X582223Y61348D01*
X582831Y59880D01*
X582833Y59876D01*
X582835Y59871D01*
X582928Y59699D01*
X583022Y59525D01*
X583024Y59521D01*
X583027Y59517D01*
X583151Y59369D01*
X583278Y59214D01*
X583281Y59211D01*
X583284Y59208D01*
X583437Y59085D01*
X583591Y58961D01*
X583595Y58958D01*
X583598Y58956D01*
X583773Y58865D01*
X583947Y58773D01*
X583951Y58772D01*
X583955Y58770D01*
X584145Y58716D01*
X584334Y58660D01*
X584338Y58660D01*
X584342Y58659D01*
X584540Y58643D01*
X584735Y58626D01*
X584739Y58626D01*
X584744Y58626D01*
X584941Y58649D01*
X585135Y58671D01*
X585139Y58672D01*
X585143Y58673D01*
X585332Y58734D01*
X585518Y58794D01*
X585522Y58796D01*
X585526Y58798D01*
X585699Y58895D01*
X585870Y58990D01*
X585873Y58993D01*
X585877Y58996D01*
X586026Y59124D01*
X586175Y59252D01*
X586178Y59256D01*
X586182Y59259D01*
X586299Y59410D01*
X586424Y59569D01*
X586426Y59573D01*
X586428Y59577D01*
X586515Y59752D01*
X586604Y59929D01*
X586606Y59933D01*
X586608Y59937D01*
X586659Y60130D01*
X586711Y60317D01*
X586711Y60322D01*
X586712Y60326D01*
X586739Y60657D01*
X586739Y406400D01*
X586734Y406456D01*
X586735Y406533D01*
X586622Y408257D01*
X586616Y408290D01*
X586616Y408323D01*
X586557Y408650D01*
X585665Y411980D01*
X585629Y412074D01*
X585604Y412170D01*
X585551Y412282D01*
X585522Y412357D01*
X585493Y412403D01*
X585462Y412470D01*
X583738Y415456D01*
X583688Y415525D01*
X583675Y415548D01*
X583669Y415555D01*
X583630Y415624D01*
X583549Y415718D01*
X583503Y415783D01*
X583463Y415820D01*
X583415Y415877D01*
X580977Y418315D01*
X580899Y418378D01*
X580829Y418449D01*
X580727Y418519D01*
X580665Y418570D01*
X580617Y418596D01*
X580556Y418638D01*
X577570Y420362D01*
X577479Y420403D01*
X577393Y420453D01*
X577276Y420495D01*
X577203Y420527D01*
X577150Y420540D01*
X577080Y420565D01*
X573750Y421457D01*
X573717Y421462D01*
X573685Y421473D01*
X573357Y421522D01*
X571633Y421635D01*
X571576Y421633D01*
X571500Y421639D01*
X52324Y421639D01*
X52306Y421637D01*
X52288Y421639D01*
X52106Y421618D01*
X51923Y421599D01*
X51906Y421594D01*
X51889Y421592D01*
X51714Y421535D01*
X51538Y421481D01*
X51523Y421473D01*
X51506Y421467D01*
X51346Y421377D01*
X51184Y421289D01*
X51171Y421278D01*
X51155Y421269D01*
X51016Y421149D01*
X50875Y421032D01*
X50864Y421018D01*
X50850Y421006D01*
X50738Y420861D01*
X50623Y420718D01*
X50615Y420702D01*
X50604Y420688D01*
X50522Y420523D01*
X50437Y420361D01*
X50432Y420344D01*
X50424Y420328D01*
X50377Y420149D01*
X50326Y419974D01*
X50324Y419956D01*
X50320Y419939D01*
X50293Y419608D01*
X50293Y415102D01*
X44638Y409447D01*
X36642Y409447D01*
X30987Y415102D01*
X30987Y419608D01*
X30985Y419626D01*
X30987Y419644D01*
X30966Y419826D01*
X30947Y420009D01*
X30942Y420026D01*
X30940Y420043D01*
X30883Y420218D01*
X30829Y420394D01*
X30821Y420409D01*
X30815Y420426D01*
X30725Y420586D01*
X30637Y420748D01*
X30626Y420761D01*
X30617Y420777D01*
X30497Y420916D01*
X30380Y421057D01*
X30366Y421068D01*
X30354Y421082D01*
X30209Y421194D01*
X30066Y421309D01*
X30050Y421317D01*
X30036Y421328D01*
X29871Y421410D01*
X29709Y421495D01*
X29692Y421500D01*
X29676Y421508D01*
X29497Y421555D01*
X29322Y421606D01*
X29304Y421608D01*
X29287Y421612D01*
X28956Y421639D01*
X26924Y421639D01*
X26906Y421637D01*
X26888Y421639D01*
X26706Y421618D01*
X26523Y421599D01*
X26506Y421594D01*
X26489Y421592D01*
X26314Y421535D01*
X26138Y421481D01*
X26123Y421473D01*
X26106Y421467D01*
X25946Y421377D01*
X25784Y421289D01*
X25771Y421278D01*
X25755Y421269D01*
X25616Y421149D01*
X25475Y421032D01*
X25464Y421018D01*
X25450Y421006D01*
X25338Y420861D01*
X25223Y420718D01*
X25215Y420702D01*
X25204Y420688D01*
X25122Y420523D01*
X25037Y420361D01*
X25032Y420344D01*
X25024Y420328D01*
X24977Y420149D01*
X24926Y419974D01*
X24924Y419956D01*
X24920Y419939D01*
X24893Y419608D01*
X24893Y415102D01*
X19238Y409447D01*
X12192Y409447D01*
X12174Y409445D01*
X12156Y409447D01*
X11974Y409426D01*
X11791Y409407D01*
X11774Y409402D01*
X11757Y409400D01*
X11582Y409343D01*
X11406Y409289D01*
X11391Y409281D01*
X11374Y409275D01*
X11214Y409185D01*
X11052Y409097D01*
X11039Y409086D01*
X11023Y409077D01*
X10884Y408957D01*
X10743Y408840D01*
X10732Y408826D01*
X10718Y408814D01*
X10606Y408669D01*
X10491Y408526D01*
X10483Y408510D01*
X10472Y408496D01*
X10390Y408331D01*
X10305Y408169D01*
X10300Y408152D01*
X10292Y408136D01*
X10245Y407957D01*
X10194Y407782D01*
X10192Y407764D01*
X10188Y407747D01*
X10161Y407416D01*
X10161Y405384D01*
X10163Y405366D01*
X10161Y405348D01*
X10182Y405166D01*
X10201Y404983D01*
X10206Y404966D01*
X10208Y404949D01*
X10265Y404774D01*
X10319Y404598D01*
X10327Y404583D01*
X10333Y404566D01*
X10423Y404406D01*
X10511Y404244D01*
X10522Y404231D01*
X10531Y404215D01*
X10651Y404076D01*
X10768Y403935D01*
X10782Y403924D01*
X10794Y403910D01*
X10939Y403798D01*
X11082Y403683D01*
X11098Y403675D01*
X11112Y403664D01*
X11277Y403582D01*
X11439Y403497D01*
X11456Y403492D01*
X11472Y403484D01*
X11651Y403437D01*
X11826Y403386D01*
X11844Y403384D01*
X11861Y403380D01*
X12192Y403353D01*
X19238Y403353D01*
X24893Y397698D01*
X24893Y390637D01*
X24895Y390610D01*
X24893Y390584D01*
X24915Y390410D01*
X24933Y390236D01*
X24940Y390211D01*
X24944Y390184D01*
X24999Y390019D01*
X25051Y389852D01*
X25064Y389828D01*
X25072Y389803D01*
X25159Y389651D01*
X25243Y389497D01*
X25260Y389477D01*
X25273Y389454D01*
X25488Y389201D01*
X31386Y383302D01*
X32005Y381809D01*
X32005Y378220D01*
X32006Y378211D01*
X32005Y378202D01*
X32026Y378010D01*
X32045Y377819D01*
X32047Y377810D01*
X32048Y377802D01*
X32106Y377619D01*
X32163Y377434D01*
X32167Y377426D01*
X32170Y377418D01*
X32263Y377249D01*
X32355Y377080D01*
X32360Y377073D01*
X32365Y377065D01*
X32490Y376918D01*
X32612Y376771D01*
X32619Y376765D01*
X32625Y376758D01*
X32777Y376638D01*
X32926Y376518D01*
X32934Y376514D01*
X32941Y376509D01*
X33113Y376421D01*
X33283Y376333D01*
X33292Y376330D01*
X33300Y376326D01*
X33486Y376275D01*
X33670Y376222D01*
X33679Y376221D01*
X33688Y376218D01*
X33880Y376204D01*
X34072Y376189D01*
X34080Y376190D01*
X34089Y376189D01*
X34282Y376213D01*
X34471Y376236D01*
X34480Y376238D01*
X34489Y376239D01*
X34672Y376301D01*
X34854Y376360D01*
X34862Y376365D01*
X34870Y376368D01*
X35036Y376463D01*
X35205Y376558D01*
X35212Y376564D01*
X35219Y376569D01*
X35472Y376783D01*
X36642Y377953D01*
X44638Y377953D01*
X50293Y372298D01*
X50293Y364302D01*
X44638Y358647D01*
X36642Y358647D01*
X35472Y359817D01*
X35465Y359822D01*
X35460Y359829D01*
X35310Y359950D01*
X35161Y360072D01*
X35153Y360076D01*
X35146Y360082D01*
X34976Y360170D01*
X34805Y360260D01*
X34796Y360263D01*
X34789Y360267D01*
X34604Y360320D01*
X34419Y360375D01*
X34410Y360376D01*
X34402Y360378D01*
X34211Y360394D01*
X34018Y360412D01*
X34009Y360411D01*
X34000Y360411D01*
X33811Y360389D01*
X33618Y360368D01*
X33609Y360365D01*
X33601Y360364D01*
X33419Y360305D01*
X33234Y360247D01*
X33226Y360242D01*
X33218Y360240D01*
X33051Y360145D01*
X32882Y360052D01*
X32875Y360046D01*
X32867Y360042D01*
X32722Y359917D01*
X32575Y359791D01*
X32569Y359784D01*
X32562Y359779D01*
X32446Y359628D01*
X32325Y359475D01*
X32321Y359467D01*
X32316Y359460D01*
X32230Y359289D01*
X32143Y359116D01*
X32140Y359108D01*
X32136Y359100D01*
X32086Y358914D01*
X32035Y358729D01*
X32034Y358720D01*
X32032Y358711D01*
X32005Y358380D01*
X32005Y352820D01*
X32006Y352811D01*
X32005Y352802D01*
X32026Y352610D01*
X32045Y352419D01*
X32047Y352410D01*
X32048Y352402D01*
X32106Y352219D01*
X32163Y352034D01*
X32167Y352026D01*
X32170Y352018D01*
X32263Y351849D01*
X32355Y351680D01*
X32360Y351673D01*
X32365Y351665D01*
X32490Y351518D01*
X32612Y351371D01*
X32619Y351365D01*
X32625Y351358D01*
X32777Y351238D01*
X32926Y351118D01*
X32934Y351114D01*
X32941Y351109D01*
X33113Y351021D01*
X33283Y350933D01*
X33292Y350930D01*
X33300Y350926D01*
X33486Y350875D01*
X33670Y350822D01*
X33679Y350821D01*
X33688Y350818D01*
X33880Y350804D01*
X34072Y350789D01*
X34080Y350790D01*
X34089Y350789D01*
X34282Y350813D01*
X34471Y350836D01*
X34480Y350838D01*
X34489Y350839D01*
X34672Y350901D01*
X34854Y350960D01*
X34862Y350965D01*
X34870Y350968D01*
X35036Y351063D01*
X35205Y351158D01*
X35212Y351164D01*
X35219Y351169D01*
X35472Y351383D01*
X36642Y352553D01*
X44638Y352553D01*
X50293Y346898D01*
X50293Y338902D01*
X44638Y333247D01*
X36642Y333247D01*
X35472Y334417D01*
X35465Y334422D01*
X35460Y334429D01*
X35310Y334550D01*
X35161Y334672D01*
X35153Y334676D01*
X35146Y334682D01*
X34976Y334770D01*
X34805Y334860D01*
X34796Y334863D01*
X34789Y334867D01*
X34604Y334920D01*
X34419Y334975D01*
X34410Y334976D01*
X34402Y334978D01*
X34211Y334994D01*
X34018Y335012D01*
X34009Y335011D01*
X34000Y335011D01*
X33811Y334989D01*
X33618Y334968D01*
X33609Y334965D01*
X33601Y334964D01*
X33419Y334905D01*
X33234Y334847D01*
X33226Y334842D01*
X33218Y334840D01*
X33051Y334745D01*
X32882Y334652D01*
X32875Y334646D01*
X32867Y334642D01*
X32722Y334517D01*
X32575Y334391D01*
X32569Y334384D01*
X32562Y334379D01*
X32446Y334228D01*
X32325Y334075D01*
X32321Y334067D01*
X32316Y334060D01*
X32230Y333889D01*
X32143Y333716D01*
X32140Y333708D01*
X32136Y333700D01*
X32086Y333514D01*
X32035Y333329D01*
X32034Y333320D01*
X32032Y333311D01*
X32005Y332980D01*
X32005Y327420D01*
X32006Y327411D01*
X32005Y327402D01*
X32026Y327210D01*
X32045Y327019D01*
X32047Y327010D01*
X32048Y327002D01*
X32106Y326819D01*
X32163Y326634D01*
X32167Y326626D01*
X32170Y326618D01*
X32263Y326449D01*
X32355Y326280D01*
X32360Y326273D01*
X32365Y326265D01*
X32490Y326118D01*
X32612Y325971D01*
X32619Y325965D01*
X32625Y325958D01*
X32777Y325838D01*
X32926Y325718D01*
X32934Y325714D01*
X32941Y325709D01*
X33113Y325621D01*
X33283Y325533D01*
X33292Y325530D01*
X33300Y325526D01*
X33486Y325475D01*
X33670Y325422D01*
X33679Y325421D01*
X33688Y325418D01*
X33880Y325404D01*
X34072Y325389D01*
X34080Y325390D01*
X34089Y325389D01*
X34282Y325413D01*
X34471Y325436D01*
X34480Y325438D01*
X34489Y325439D01*
X34672Y325501D01*
X34854Y325560D01*
X34862Y325565D01*
X34870Y325568D01*
X35036Y325663D01*
X35205Y325758D01*
X35212Y325764D01*
X35219Y325769D01*
X35472Y325983D01*
X36642Y327153D01*
X44638Y327153D01*
X50293Y321498D01*
X50293Y313502D01*
X44638Y307847D01*
X36642Y307847D01*
X35472Y309017D01*
X35465Y309022D01*
X35460Y309029D01*
X35310Y309150D01*
X35161Y309272D01*
X35153Y309276D01*
X35146Y309282D01*
X34976Y309370D01*
X34805Y309460D01*
X34796Y309463D01*
X34789Y309467D01*
X34604Y309520D01*
X34419Y309575D01*
X34410Y309576D01*
X34402Y309578D01*
X34211Y309594D01*
X34018Y309612D01*
X34009Y309611D01*
X34000Y309611D01*
X33811Y309589D01*
X33618Y309568D01*
X33609Y309565D01*
X33601Y309564D01*
X33419Y309505D01*
X33234Y309447D01*
X33226Y309442D01*
X33218Y309440D01*
X33051Y309345D01*
X32882Y309252D01*
X32875Y309246D01*
X32867Y309242D01*
X32722Y309117D01*
X32575Y308991D01*
X32569Y308984D01*
X32562Y308979D01*
X32446Y308828D01*
X32325Y308675D01*
X32321Y308667D01*
X32316Y308660D01*
X32230Y308489D01*
X32143Y308316D01*
X32140Y308308D01*
X32136Y308300D01*
X32086Y308114D01*
X32035Y307929D01*
X32034Y307920D01*
X32032Y307911D01*
X32005Y307580D01*
X32005Y302020D01*
X32006Y302011D01*
X32005Y302002D01*
X32026Y301810D01*
X32045Y301619D01*
X32047Y301610D01*
X32048Y301602D01*
X32106Y301419D01*
X32163Y301234D01*
X32167Y301226D01*
X32170Y301218D01*
X32263Y301049D01*
X32355Y300880D01*
X32360Y300873D01*
X32365Y300865D01*
X32490Y300718D01*
X32612Y300571D01*
X32619Y300565D01*
X32625Y300558D01*
X32777Y300438D01*
X32926Y300318D01*
X32934Y300314D01*
X32941Y300309D01*
X33113Y300221D01*
X33283Y300133D01*
X33292Y300130D01*
X33300Y300126D01*
X33486Y300075D01*
X33670Y300022D01*
X33679Y300021D01*
X33688Y300018D01*
X33880Y300004D01*
X34072Y299989D01*
X34080Y299990D01*
X34089Y299989D01*
X34282Y300013D01*
X34471Y300036D01*
X34480Y300038D01*
X34489Y300039D01*
X34672Y300101D01*
X34854Y300160D01*
X34862Y300165D01*
X34870Y300168D01*
X35036Y300263D01*
X35205Y300358D01*
X35212Y300364D01*
X35219Y300369D01*
X35472Y300583D01*
X36642Y301753D01*
X44638Y301753D01*
X50293Y296098D01*
X50293Y288102D01*
X44638Y282447D01*
X36642Y282447D01*
X35472Y283617D01*
X35465Y283622D01*
X35460Y283629D01*
X35310Y283750D01*
X35161Y283872D01*
X35153Y283876D01*
X35146Y283882D01*
X34976Y283970D01*
X34805Y284060D01*
X34796Y284063D01*
X34789Y284067D01*
X34604Y284120D01*
X34419Y284175D01*
X34410Y284176D01*
X34402Y284178D01*
X34211Y284194D01*
X34018Y284212D01*
X34009Y284211D01*
X34000Y284211D01*
X33811Y284189D01*
X33618Y284168D01*
X33609Y284165D01*
X33601Y284164D01*
X33419Y284105D01*
X33234Y284047D01*
X33226Y284042D01*
X33218Y284040D01*
X33051Y283945D01*
X32882Y283852D01*
X32875Y283846D01*
X32867Y283842D01*
X32722Y283717D01*
X32575Y283591D01*
X32569Y283584D01*
X32562Y283579D01*
X32446Y283428D01*
X32325Y283275D01*
X32321Y283267D01*
X32316Y283260D01*
X32230Y283089D01*
X32143Y282916D01*
X32140Y282908D01*
X32136Y282900D01*
X32086Y282714D01*
X32035Y282529D01*
X32034Y282520D01*
X32032Y282511D01*
X32005Y282180D01*
X32005Y276620D01*
X32006Y276611D01*
X32005Y276602D01*
X32026Y276410D01*
X32045Y276219D01*
X32047Y276210D01*
X32048Y276202D01*
X32106Y276019D01*
X32163Y275834D01*
X32167Y275826D01*
X32170Y275818D01*
X32263Y275649D01*
X32355Y275480D01*
X32360Y275473D01*
X32365Y275465D01*
X32490Y275318D01*
X32612Y275171D01*
X32619Y275165D01*
X32625Y275158D01*
X32777Y275038D01*
X32926Y274918D01*
X32934Y274914D01*
X32941Y274909D01*
X33113Y274821D01*
X33283Y274733D01*
X33292Y274730D01*
X33300Y274726D01*
X33486Y274675D01*
X33670Y274622D01*
X33679Y274621D01*
X33688Y274618D01*
X33880Y274604D01*
X34072Y274589D01*
X34080Y274590D01*
X34089Y274589D01*
X34282Y274613D01*
X34471Y274636D01*
X34480Y274638D01*
X34489Y274639D01*
X34672Y274701D01*
X34854Y274760D01*
X34862Y274765D01*
X34870Y274768D01*
X35036Y274863D01*
X35205Y274958D01*
X35212Y274964D01*
X35219Y274969D01*
X35472Y275183D01*
X36642Y276353D01*
X44638Y276353D01*
X50293Y270698D01*
X50293Y262702D01*
X44638Y257047D01*
X36642Y257047D01*
X35472Y258217D01*
X35465Y258222D01*
X35460Y258229D01*
X35310Y258350D01*
X35161Y258472D01*
X35153Y258476D01*
X35146Y258482D01*
X34976Y258570D01*
X34805Y258660D01*
X34796Y258663D01*
X34789Y258667D01*
X34604Y258720D01*
X34419Y258775D01*
X34410Y258776D01*
X34402Y258778D01*
X34211Y258794D01*
X34018Y258812D01*
X34009Y258811D01*
X34000Y258811D01*
X33811Y258789D01*
X33618Y258768D01*
X33609Y258765D01*
X33601Y258764D01*
X33419Y258705D01*
X33234Y258647D01*
X33226Y258642D01*
X33218Y258640D01*
X33051Y258545D01*
X32882Y258452D01*
X32875Y258446D01*
X32867Y258442D01*
X32722Y258317D01*
X32575Y258191D01*
X32569Y258184D01*
X32562Y258179D01*
X32446Y258028D01*
X32325Y257875D01*
X32321Y257867D01*
X32316Y257860D01*
X32230Y257689D01*
X32143Y257516D01*
X32140Y257508D01*
X32136Y257500D01*
X32086Y257314D01*
X32035Y257129D01*
X32034Y257120D01*
X32032Y257111D01*
X32005Y256780D01*
X32005Y251220D01*
X32006Y251211D01*
X32005Y251202D01*
X32026Y251010D01*
X32045Y250819D01*
X32047Y250810D01*
X32048Y250802D01*
X32106Y250619D01*
X32163Y250434D01*
X32167Y250426D01*
X32170Y250418D01*
X32263Y250249D01*
X32355Y250080D01*
X32360Y250073D01*
X32365Y250065D01*
X32490Y249918D01*
X32612Y249771D01*
X32619Y249765D01*
X32625Y249758D01*
X32777Y249638D01*
X32926Y249518D01*
X32934Y249514D01*
X32941Y249509D01*
X33113Y249421D01*
X33283Y249333D01*
X33292Y249330D01*
X33300Y249326D01*
X33486Y249275D01*
X33670Y249222D01*
X33679Y249221D01*
X33688Y249218D01*
X33880Y249204D01*
X34072Y249189D01*
X34080Y249190D01*
X34089Y249189D01*
X34282Y249213D01*
X34471Y249236D01*
X34480Y249238D01*
X34489Y249239D01*
X34672Y249301D01*
X34854Y249360D01*
X34862Y249365D01*
X34870Y249368D01*
X35036Y249463D01*
X35205Y249558D01*
X35212Y249564D01*
X35219Y249569D01*
X35472Y249783D01*
X36642Y250953D01*
X44638Y250953D01*
X50293Y245298D01*
X50293Y237302D01*
X44638Y231647D01*
X36642Y231647D01*
X35472Y232817D01*
X35465Y232822D01*
X35460Y232829D01*
X35310Y232950D01*
X35161Y233072D01*
X35153Y233076D01*
X35146Y233082D01*
X34976Y233170D01*
X34805Y233260D01*
X34796Y233263D01*
X34789Y233267D01*
X34604Y233320D01*
X34419Y233375D01*
X34410Y233376D01*
X34402Y233378D01*
X34211Y233394D01*
X34018Y233412D01*
X34009Y233411D01*
X34000Y233411D01*
X33811Y233389D01*
X33618Y233368D01*
X33609Y233365D01*
X33601Y233364D01*
X33419Y233305D01*
X33234Y233247D01*
X33226Y233242D01*
X33218Y233240D01*
X33051Y233145D01*
X32882Y233052D01*
X32875Y233046D01*
X32867Y233042D01*
X32722Y232917D01*
X32575Y232791D01*
X32569Y232784D01*
X32562Y232779D01*
X32446Y232628D01*
X32325Y232475D01*
X32321Y232467D01*
X32316Y232460D01*
X32230Y232289D01*
X32143Y232116D01*
X32140Y232108D01*
X32136Y232100D01*
X32086Y231914D01*
X32035Y231729D01*
X32034Y231720D01*
X32032Y231711D01*
X32005Y231380D01*
X32005Y225820D01*
X32006Y225811D01*
X32005Y225802D01*
X32026Y225610D01*
X32045Y225419D01*
X32047Y225410D01*
X32048Y225402D01*
X32106Y225219D01*
X32163Y225034D01*
X32167Y225026D01*
X32170Y225018D01*
X32263Y224849D01*
X32355Y224680D01*
X32360Y224673D01*
X32365Y224665D01*
X32490Y224518D01*
X32612Y224371D01*
X32619Y224365D01*
X32625Y224358D01*
X32777Y224238D01*
X32926Y224118D01*
X32934Y224114D01*
X32941Y224109D01*
X33113Y224021D01*
X33283Y223933D01*
X33292Y223930D01*
X33300Y223926D01*
X33486Y223875D01*
X33670Y223822D01*
X33679Y223821D01*
X33688Y223818D01*
X33880Y223804D01*
X34072Y223789D01*
X34080Y223790D01*
X34089Y223789D01*
X34282Y223813D01*
X34471Y223836D01*
X34480Y223838D01*
X34489Y223839D01*
X34672Y223901D01*
X34854Y223960D01*
X34862Y223965D01*
X34870Y223968D01*
X35036Y224063D01*
X35205Y224158D01*
X35212Y224164D01*
X35219Y224169D01*
X35472Y224383D01*
X36642Y225553D01*
X44638Y225553D01*
X50293Y219898D01*
X50293Y211902D01*
X44638Y206247D01*
X36642Y206247D01*
X35472Y207417D01*
X35465Y207422D01*
X35460Y207429D01*
X35310Y207550D01*
X35161Y207672D01*
X35153Y207676D01*
X35146Y207682D01*
X34976Y207770D01*
X34805Y207860D01*
X34796Y207863D01*
X34789Y207867D01*
X34604Y207920D01*
X34419Y207975D01*
X34410Y207976D01*
X34402Y207978D01*
X34211Y207994D01*
X34018Y208012D01*
X34009Y208011D01*
X34000Y208011D01*
X33811Y207989D01*
X33618Y207968D01*
X33609Y207965D01*
X33601Y207964D01*
X33419Y207905D01*
X33234Y207847D01*
X33226Y207842D01*
X33218Y207840D01*
X33051Y207745D01*
X32882Y207652D01*
X32875Y207646D01*
X32867Y207642D01*
X32722Y207517D01*
X32575Y207391D01*
X32569Y207384D01*
X32562Y207379D01*
X32445Y207228D01*
X32325Y207075D01*
X32321Y207067D01*
X32316Y207060D01*
X32230Y206889D01*
X32143Y206716D01*
X32140Y206708D01*
X32136Y206700D01*
X32086Y206514D01*
X32035Y206329D01*
X32034Y206320D01*
X32032Y206311D01*
X32005Y205980D01*
X32005Y200420D01*
X32006Y200411D01*
X32005Y200402D01*
X32026Y200210D01*
X32045Y200019D01*
X32047Y200010D01*
X32048Y200002D01*
X32106Y199819D01*
X32163Y199634D01*
X32167Y199626D01*
X32170Y199618D01*
X32263Y199449D01*
X32355Y199280D01*
X32360Y199273D01*
X32365Y199265D01*
X32490Y199118D01*
X32612Y198971D01*
X32619Y198965D01*
X32625Y198958D01*
X32777Y198838D01*
X32926Y198718D01*
X32934Y198714D01*
X32941Y198709D01*
X33113Y198621D01*
X33283Y198533D01*
X33292Y198530D01*
X33300Y198526D01*
X33486Y198475D01*
X33670Y198422D01*
X33679Y198421D01*
X33688Y198418D01*
X33880Y198404D01*
X34072Y198389D01*
X34080Y198390D01*
X34089Y198389D01*
X34282Y198413D01*
X34471Y198436D01*
X34480Y198438D01*
X34489Y198439D01*
X34672Y198501D01*
X34854Y198560D01*
X34862Y198565D01*
X34870Y198568D01*
X35036Y198663D01*
X35205Y198758D01*
X35212Y198764D01*
X35219Y198769D01*
X35472Y198983D01*
X36642Y200153D01*
X44638Y200153D01*
X50293Y194498D01*
X50293Y186502D01*
X44638Y180847D01*
X36642Y180847D01*
X35472Y182017D01*
X35465Y182022D01*
X35460Y182029D01*
X35310Y182150D01*
X35161Y182272D01*
X35153Y182276D01*
X35146Y182282D01*
X34976Y182370D01*
X34805Y182460D01*
X34796Y182463D01*
X34789Y182467D01*
X34604Y182520D01*
X34419Y182575D01*
X34410Y182576D01*
X34402Y182578D01*
X34211Y182594D01*
X34018Y182612D01*
X34009Y182611D01*
X34000Y182611D01*
X33811Y182589D01*
X33618Y182568D01*
X33609Y182565D01*
X33601Y182564D01*
X33419Y182505D01*
X33234Y182447D01*
X33226Y182442D01*
X33218Y182440D01*
X33051Y182345D01*
X32882Y182252D01*
X32875Y182246D01*
X32867Y182242D01*
X32722Y182117D01*
X32575Y181991D01*
X32569Y181984D01*
X32562Y181979D01*
X32446Y181828D01*
X32325Y181675D01*
X32321Y181667D01*
X32316Y181660D01*
X32230Y181489D01*
X32143Y181316D01*
X32140Y181308D01*
X32136Y181300D01*
X32086Y181114D01*
X32035Y180929D01*
X32034Y180920D01*
X32032Y180911D01*
X32005Y180580D01*
X32005Y175020D01*
X32006Y175011D01*
X32005Y175002D01*
X32026Y174810D01*
X32045Y174619D01*
X32047Y174610D01*
X32048Y174602D01*
X32106Y174419D01*
X32163Y174234D01*
X32167Y174226D01*
X32170Y174218D01*
X32263Y174049D01*
X32355Y173880D01*
X32360Y173873D01*
X32365Y173865D01*
X32490Y173718D01*
X32612Y173571D01*
X32619Y173565D01*
X32625Y173558D01*
X32777Y173438D01*
X32926Y173318D01*
X32934Y173314D01*
X32941Y173309D01*
X33113Y173221D01*
X33283Y173133D01*
X33292Y173130D01*
X33300Y173126D01*
X33486Y173075D01*
X33670Y173022D01*
X33679Y173021D01*
X33688Y173018D01*
X33880Y173004D01*
X34072Y172989D01*
X34080Y172990D01*
X34089Y172989D01*
X34282Y173013D01*
X34471Y173036D01*
X34480Y173038D01*
X34489Y173039D01*
X34672Y173101D01*
X34854Y173160D01*
X34862Y173165D01*
X34870Y173168D01*
X35036Y173263D01*
X35205Y173358D01*
X35212Y173364D01*
X35219Y173369D01*
X35472Y173583D01*
X36642Y174753D01*
X44638Y174753D01*
X50293Y169098D01*
X50293Y161102D01*
X44638Y155447D01*
X36642Y155447D01*
X35472Y156617D01*
X35465Y156622D01*
X35460Y156629D01*
X35310Y156750D01*
X35161Y156872D01*
X35153Y156876D01*
X35146Y156882D01*
X34976Y156970D01*
X34805Y157060D01*
X34796Y157063D01*
X34789Y157067D01*
X34604Y157120D01*
X34419Y157175D01*
X34410Y157176D01*
X34402Y157178D01*
X34211Y157194D01*
X34018Y157212D01*
X34009Y157211D01*
X34000Y157211D01*
X33811Y157189D01*
X33618Y157168D01*
X33609Y157165D01*
X33601Y157164D01*
X33419Y157105D01*
X33234Y157047D01*
X33226Y157042D01*
X33218Y157040D01*
X33051Y156945D01*
X32882Y156852D01*
X32875Y156846D01*
X32867Y156842D01*
X32722Y156717D01*
X32575Y156591D01*
X32569Y156584D01*
X32562Y156579D01*
X32446Y156428D01*
X32325Y156275D01*
X32321Y156267D01*
X32316Y156260D01*
X32230Y156089D01*
X32143Y155916D01*
X32140Y155908D01*
X32136Y155900D01*
X32086Y155714D01*
X32035Y155529D01*
X32034Y155520D01*
X32032Y155511D01*
X32005Y155180D01*
X32005Y151591D01*
X31386Y150098D01*
X25488Y144199D01*
X25471Y144179D01*
X25450Y144161D01*
X25343Y144023D01*
X25233Y143888D01*
X25220Y143864D01*
X25204Y143843D01*
X25126Y143686D01*
X25044Y143532D01*
X25036Y143507D01*
X25024Y143482D01*
X24979Y143313D01*
X24929Y143146D01*
X24927Y143120D01*
X24920Y143094D01*
X24893Y142763D01*
X24893Y135702D01*
X19238Y130047D01*
X12192Y130047D01*
X12174Y130045D01*
X12156Y130047D01*
X11974Y130026D01*
X11791Y130007D01*
X11774Y130002D01*
X11757Y130000D01*
X11582Y129943D01*
X11406Y129889D01*
X11391Y129881D01*
X11374Y129875D01*
X11214Y129785D01*
X11052Y129697D01*
X11039Y129686D01*
X11023Y129677D01*
X10884Y129557D01*
X10743Y129440D01*
X10732Y129426D01*
X10718Y129414D01*
X10606Y129269D01*
X10491Y129126D01*
X10483Y129110D01*
X10472Y129096D01*
X10390Y128931D01*
X10305Y128769D01*
X10300Y128752D01*
X10292Y128736D01*
X10245Y128557D01*
X10194Y128382D01*
X10192Y128364D01*
X10188Y128347D01*
X10161Y128016D01*
X10161Y126492D01*
X10163Y126474D01*
X10161Y126456D01*
X10182Y126274D01*
X10201Y126091D01*
X10206Y126074D01*
X10208Y126057D01*
X10265Y125882D01*
X10319Y125706D01*
X10327Y125691D01*
X10333Y125674D01*
X10423Y125514D01*
X10511Y125352D01*
X10522Y125339D01*
X10531Y125323D01*
X10651Y125184D01*
X10768Y125043D01*
X10782Y125032D01*
X10794Y125018D01*
X10939Y124906D01*
X11082Y124791D01*
X11098Y124783D01*
X11112Y124772D01*
X11277Y124690D01*
X11439Y124605D01*
X11456Y124600D01*
X11472Y124592D01*
X11651Y124545D01*
X11826Y124494D01*
X11844Y124492D01*
X11861Y124488D01*
X12192Y124461D01*
X12701Y124461D01*
X12701Y114808D01*
X12702Y114790D01*
X12701Y114773D01*
X12722Y114590D01*
X12741Y114408D01*
X12746Y114391D01*
X12748Y114373D01*
X12773Y114295D01*
X12734Y114158D01*
X12732Y114140D01*
X12728Y114123D01*
X12701Y113792D01*
X12701Y104139D01*
X12192Y104139D01*
X12174Y104137D01*
X12156Y104139D01*
X11974Y104118D01*
X11791Y104099D01*
X11774Y104094D01*
X11757Y104092D01*
X11582Y104035D01*
X11406Y103981D01*
X11391Y103973D01*
X11374Y103967D01*
X11214Y103877D01*
X11052Y103789D01*
X11039Y103778D01*
X11023Y103769D01*
X10884Y103649D01*
X10743Y103532D01*
X10732Y103518D01*
X10718Y103506D01*
X10606Y103361D01*
X10491Y103218D01*
X10483Y103202D01*
X10472Y103188D01*
X10390Y103023D01*
X10305Y102861D01*
X10300Y102844D01*
X10292Y102828D01*
X10245Y102649D01*
X10194Y102474D01*
X10192Y102456D01*
X10188Y102439D01*
X10161Y102108D01*
X10161Y100584D01*
X10163Y100566D01*
X10161Y100548D01*
X10182Y100366D01*
X10201Y100183D01*
X10206Y100166D01*
X10208Y100149D01*
X10265Y99974D01*
X10319Y99798D01*
X10327Y99783D01*
X10333Y99766D01*
X10423Y99606D01*
X10511Y99444D01*
X10522Y99431D01*
X10531Y99415D01*
X10651Y99276D01*
X10768Y99135D01*
X10782Y99124D01*
X10794Y99110D01*
X10939Y98998D01*
X11082Y98883D01*
X11098Y98875D01*
X11112Y98864D01*
X11277Y98782D01*
X11439Y98697D01*
X11456Y98692D01*
X11472Y98684D01*
X11651Y98637D01*
X11826Y98586D01*
X11844Y98584D01*
X11861Y98580D01*
X12192Y98553D01*
X19238Y98553D01*
X24893Y92898D01*
X24893Y84902D01*
X19238Y79247D01*
X12192Y79247D01*
X12174Y79245D01*
X12156Y79247D01*
X11974Y79226D01*
X11791Y79207D01*
X11774Y79202D01*
X11757Y79200D01*
X11582Y79143D01*
X11406Y79089D01*
X11391Y79081D01*
X11374Y79075D01*
X11214Y78985D01*
X11052Y78897D01*
X11039Y78886D01*
X11023Y78877D01*
X10884Y78757D01*
X10743Y78640D01*
X10732Y78626D01*
X10718Y78614D01*
X10606Y78469D01*
X10491Y78326D01*
X10483Y78310D01*
X10472Y78296D01*
X10390Y78131D01*
X10305Y77969D01*
X10300Y77952D01*
X10292Y77936D01*
X10245Y77757D01*
X10194Y77582D01*
X10192Y77564D01*
X10188Y77547D01*
X10161Y77216D01*
X10161Y75184D01*
X10163Y75166D01*
X10161Y75148D01*
X10182Y74966D01*
X10201Y74783D01*
X10206Y74766D01*
X10208Y74749D01*
X10265Y74574D01*
X10319Y74398D01*
X10327Y74383D01*
X10333Y74366D01*
X10423Y74206D01*
X10511Y74044D01*
X10522Y74031D01*
X10531Y74015D01*
X10651Y73876D01*
X10768Y73735D01*
X10782Y73724D01*
X10794Y73710D01*
X10939Y73598D01*
X11082Y73483D01*
X11098Y73475D01*
X11112Y73464D01*
X11277Y73382D01*
X11439Y73297D01*
X11456Y73292D01*
X11472Y73284D01*
X11651Y73237D01*
X11826Y73186D01*
X11844Y73184D01*
X11861Y73180D01*
X12192Y73153D01*
X19238Y73153D01*
X24893Y67498D01*
X24893Y59502D01*
X19238Y53847D01*
X12192Y53847D01*
X12174Y53845D01*
X12156Y53847D01*
X11974Y53826D01*
X11791Y53807D01*
X11774Y53802D01*
X11757Y53800D01*
X11582Y53743D01*
X11406Y53689D01*
X11391Y53681D01*
X11374Y53675D01*
X11214Y53585D01*
X11052Y53497D01*
X11039Y53486D01*
X11023Y53477D01*
X10884Y53357D01*
X10743Y53240D01*
X10732Y53226D01*
X10718Y53214D01*
X10606Y53069D01*
X10491Y52926D01*
X10483Y52910D01*
X10472Y52896D01*
X10390Y52731D01*
X10305Y52569D01*
X10300Y52552D01*
X10292Y52536D01*
X10245Y52357D01*
X10194Y52182D01*
X10192Y52164D01*
X10188Y52147D01*
X10161Y51816D01*
X10161Y49784D01*
X10163Y49766D01*
X10161Y49748D01*
X10182Y49566D01*
X10201Y49383D01*
X10206Y49366D01*
X10208Y49349D01*
X10265Y49174D01*
X10319Y48998D01*
X10327Y48983D01*
X10333Y48966D01*
X10423Y48806D01*
X10511Y48644D01*
X10522Y48631D01*
X10531Y48615D01*
X10651Y48476D01*
X10768Y48335D01*
X10782Y48324D01*
X10794Y48310D01*
X10939Y48198D01*
X11082Y48083D01*
X11098Y48075D01*
X11112Y48064D01*
X11277Y47982D01*
X11439Y47897D01*
X11456Y47892D01*
X11472Y47884D01*
X11651Y47837D01*
X11826Y47786D01*
X11844Y47784D01*
X11861Y47780D01*
X12192Y47753D01*
X19238Y47753D01*
X24893Y42098D01*
X24893Y34102D01*
X19238Y28447D01*
X12192Y28447D01*
X12174Y28445D01*
X12156Y28447D01*
X11974Y28426D01*
X11791Y28407D01*
X11774Y28402D01*
X11757Y28400D01*
X11582Y28343D01*
X11406Y28289D01*
X11391Y28281D01*
X11374Y28275D01*
X11214Y28185D01*
X11052Y28097D01*
X11039Y28086D01*
X11023Y28077D01*
X10884Y27957D01*
X10743Y27840D01*
X10732Y27826D01*
X10718Y27814D01*
X10606Y27669D01*
X10491Y27526D01*
X10483Y27510D01*
X10472Y27496D01*
X10390Y27331D01*
X10305Y27169D01*
X10300Y27152D01*
X10292Y27136D01*
X10245Y26957D01*
X10194Y26782D01*
X10192Y26764D01*
X10188Y26747D01*
X10161Y26416D01*
X10161Y24384D01*
X10163Y24366D01*
X10161Y24348D01*
X10182Y24166D01*
X10201Y23983D01*
X10206Y23966D01*
X10208Y23949D01*
X10265Y23774D01*
X10319Y23598D01*
X10327Y23583D01*
X10333Y23566D01*
X10423Y23406D01*
X10511Y23244D01*
X10522Y23231D01*
X10531Y23215D01*
X10651Y23076D01*
X10768Y22935D01*
X10782Y22924D01*
X10794Y22910D01*
X10939Y22798D01*
X11082Y22683D01*
X11098Y22675D01*
X11112Y22664D01*
X11277Y22582D01*
X11439Y22497D01*
X11456Y22492D01*
X11472Y22484D01*
X11651Y22437D01*
X11826Y22386D01*
X11844Y22384D01*
X11861Y22380D01*
X12192Y22353D01*
X19238Y22353D01*
X24893Y16698D01*
X24893Y12192D01*
X24895Y12174D01*
X24893Y12156D01*
X24914Y11974D01*
X24933Y11791D01*
X24938Y11774D01*
X24940Y11757D01*
X24997Y11582D01*
X25051Y11406D01*
X25059Y11391D01*
X25065Y11374D01*
X25155Y11214D01*
X25243Y11052D01*
X25254Y11039D01*
X25263Y11023D01*
X25383Y10884D01*
X25500Y10743D01*
X25514Y10732D01*
X25526Y10718D01*
X25671Y10606D01*
X25814Y10491D01*
X25830Y10483D01*
X25844Y10472D01*
X26009Y10390D01*
X26171Y10305D01*
X26188Y10300D01*
X26204Y10292D01*
X26383Y10245D01*
X26558Y10194D01*
X26576Y10192D01*
X26593Y10188D01*
X26924Y10161D01*
X28956Y10161D01*
X28974Y10163D01*
G37*
%LPC*%
G36*
X530088Y106919D02*
X530088Y106919D01*
X523688Y108634D01*
X517951Y111946D01*
X513266Y116631D01*
X509954Y122368D01*
X508239Y128768D01*
X508239Y135392D01*
X509954Y141792D01*
X513266Y147529D01*
X517951Y152214D01*
X523688Y155526D01*
X530088Y157241D01*
X536712Y157241D01*
X543112Y155526D01*
X548849Y152214D01*
X553534Y147529D01*
X556846Y141792D01*
X558561Y135392D01*
X558561Y128768D01*
X556846Y122368D01*
X553534Y116631D01*
X548849Y111946D01*
X543112Y108634D01*
X536712Y106919D01*
X530088Y106919D01*
G37*
%LPD*%
%LPC*%
G36*
X516608Y31397D02*
X516608Y31397D01*
X515417Y32588D01*
X515417Y46936D01*
X515415Y46963D01*
X515417Y46989D01*
X515395Y47163D01*
X515377Y47337D01*
X515370Y47362D01*
X515366Y47389D01*
X515311Y47554D01*
X515259Y47722D01*
X515246Y47745D01*
X515238Y47771D01*
X515151Y47922D01*
X515067Y48076D01*
X515050Y48096D01*
X515037Y48119D01*
X514822Y48372D01*
X507450Y55744D01*
X507443Y55750D01*
X507438Y55757D01*
X507288Y55877D01*
X507139Y56000D01*
X507131Y56004D01*
X507124Y56009D01*
X506954Y56098D01*
X506783Y56188D01*
X506774Y56191D01*
X506767Y56195D01*
X506582Y56248D01*
X506397Y56303D01*
X506388Y56304D01*
X506380Y56306D01*
X506188Y56322D01*
X505996Y56339D01*
X505987Y56338D01*
X505978Y56339D01*
X505789Y56317D01*
X505596Y56296D01*
X505587Y56293D01*
X505579Y56292D01*
X505397Y56233D01*
X505212Y56174D01*
X505204Y56170D01*
X505196Y56167D01*
X505168Y56152D01*
X505215Y56241D01*
X505217Y56250D01*
X505221Y56258D01*
X505273Y56444D01*
X505326Y56628D01*
X505327Y56637D01*
X505329Y56646D01*
X505343Y56839D01*
X505359Y57030D01*
X505358Y57038D01*
X505359Y57047D01*
X505335Y57239D01*
X505312Y57429D01*
X505309Y57438D01*
X505308Y57447D01*
X505247Y57629D01*
X505187Y57812D01*
X505183Y57820D01*
X505180Y57828D01*
X505084Y57995D01*
X504989Y58163D01*
X504984Y58170D01*
X504979Y58177D01*
X504764Y58430D01*
X470374Y92820D01*
X470354Y92837D01*
X470336Y92858D01*
X470198Y92965D01*
X470063Y93075D01*
X470039Y93088D01*
X470018Y93104D01*
X469861Y93182D01*
X469707Y93264D01*
X469682Y93272D01*
X469658Y93284D01*
X469488Y93329D01*
X469321Y93379D01*
X469295Y93381D01*
X469269Y93388D01*
X468938Y93415D01*
X468495Y93415D01*
X465898Y94491D01*
X463911Y96478D01*
X462835Y99075D01*
X462835Y101885D01*
X463911Y104482D01*
X465898Y106469D01*
X468495Y107545D01*
X471305Y107545D01*
X473902Y106469D01*
X475889Y104482D01*
X476965Y101885D01*
X476965Y101442D01*
X476967Y101415D01*
X476965Y101389D01*
X476987Y101215D01*
X477005Y101041D01*
X477012Y101016D01*
X477016Y100989D01*
X477071Y100823D01*
X477123Y100656D01*
X477136Y100633D01*
X477144Y100607D01*
X477231Y100456D01*
X477315Y100302D01*
X477332Y100282D01*
X477345Y100259D01*
X477560Y100006D01*
X522008Y55558D01*
X522028Y55541D01*
X522046Y55520D01*
X522184Y55413D01*
X522319Y55303D01*
X522343Y55290D01*
X522364Y55274D01*
X522521Y55196D01*
X522675Y55114D01*
X522700Y55106D01*
X522724Y55094D01*
X522894Y55049D01*
X523061Y54999D01*
X523087Y54997D01*
X523113Y54990D01*
X523444Y54963D01*
X537792Y54963D01*
X538983Y53772D01*
X538983Y32588D01*
X537792Y31397D01*
X516608Y31397D01*
G37*
%LPD*%
%LPC*%
G36*
X338440Y46227D02*
X338440Y46227D01*
X334892Y47697D01*
X332177Y50412D01*
X330707Y53960D01*
X330707Y57800D01*
X332177Y61348D01*
X334892Y64063D01*
X337546Y65162D01*
X337546Y65163D01*
X338440Y65533D01*
X357520Y65533D01*
X361068Y64063D01*
X363783Y61348D01*
X365253Y57800D01*
X365253Y53960D01*
X363783Y50412D01*
X361068Y47697D01*
X358336Y46565D01*
X357520Y46227D01*
X338440Y46227D01*
G37*
%LPD*%
%LPC*%
G36*
X270349Y112140D02*
X270349Y112140D01*
X266801Y113609D01*
X253309Y127101D01*
X251840Y130649D01*
X251840Y134489D01*
X253309Y138036D01*
X256025Y140752D01*
X259572Y142221D01*
X263412Y142221D01*
X266960Y140752D01*
X280452Y127260D01*
X281921Y123712D01*
X281921Y119872D01*
X280452Y116325D01*
X277736Y113609D01*
X274189Y112140D01*
X270349Y112140D01*
G37*
%LPD*%
%LPC*%
G36*
X288309Y130100D02*
X288309Y130100D01*
X284761Y131570D01*
X271270Y145061D01*
X269800Y148609D01*
X269800Y152449D01*
X271270Y155997D01*
X273985Y158712D01*
X277533Y160182D01*
X281373Y160182D01*
X284921Y158712D01*
X298412Y145221D01*
X299882Y141673D01*
X299882Y137833D01*
X298412Y134285D01*
X295697Y131570D01*
X292149Y130100D01*
X288309Y130100D01*
G37*
%LPD*%
%LPC*%
G36*
X234428Y76219D02*
X234428Y76219D01*
X230880Y77688D01*
X217388Y91180D01*
X215919Y94728D01*
X215919Y98568D01*
X217388Y102115D01*
X220104Y104831D01*
X222413Y105787D01*
X222413Y105788D01*
X223651Y106300D01*
X227491Y106300D01*
X231039Y104831D01*
X244531Y91339D01*
X246000Y87791D01*
X246000Y83951D01*
X244531Y80404D01*
X241815Y77688D01*
X240236Y77034D01*
X238268Y76219D01*
X234428Y76219D01*
G37*
%LPD*%
%LPC*%
G36*
X252388Y94179D02*
X252388Y94179D01*
X248840Y95649D01*
X235349Y109140D01*
X233879Y112688D01*
X233879Y116528D01*
X235349Y120076D01*
X238064Y122791D01*
X241148Y124069D01*
X241612Y124261D01*
X245452Y124261D01*
X249000Y122791D01*
X262491Y109300D01*
X263961Y105752D01*
X263961Y101912D01*
X262491Y98364D01*
X259776Y95649D01*
X258971Y95315D01*
X256228Y94179D01*
X252388Y94179D01*
G37*
%LPD*%
%LPC*%
G36*
X481608Y31397D02*
X481608Y31397D01*
X480417Y32588D01*
X480417Y53772D01*
X481608Y54963D01*
X503328Y54963D01*
X503337Y54964D01*
X503346Y54963D01*
X503539Y54984D01*
X503729Y55003D01*
X503737Y55005D01*
X503746Y55006D01*
X503931Y55065D01*
X504114Y55121D01*
X504122Y55125D01*
X504130Y55128D01*
X504176Y55153D01*
X504121Y55044D01*
X504118Y55036D01*
X504114Y55028D01*
X504064Y54841D01*
X504013Y54656D01*
X504012Y54648D01*
X504010Y54639D01*
X503983Y54308D01*
X503983Y32588D01*
X502792Y31397D01*
X481608Y31397D01*
G37*
%LPD*%
%LPC*%
G36*
X376608Y31397D02*
X376608Y31397D01*
X375417Y32588D01*
X375417Y53772D01*
X376608Y54963D01*
X397792Y54963D01*
X398983Y53772D01*
X398983Y32588D01*
X397792Y31397D01*
X376608Y31397D01*
G37*
%LPD*%
%LPC*%
G36*
X446608Y31397D02*
X446608Y31397D01*
X445417Y32588D01*
X445417Y53772D01*
X446608Y54963D01*
X467792Y54963D01*
X468983Y53772D01*
X468983Y32588D01*
X467792Y31397D01*
X446608Y31397D01*
G37*
%LPD*%
%LPC*%
G36*
X36642Y53847D02*
X36642Y53847D01*
X30987Y59502D01*
X30987Y67498D01*
X36642Y73153D01*
X44638Y73153D01*
X50293Y67498D01*
X50293Y59502D01*
X44638Y53847D01*
X36642Y53847D01*
G37*
%LPD*%
%LPC*%
G36*
X36642Y28447D02*
X36642Y28447D01*
X30987Y34102D01*
X30987Y42098D01*
X36642Y47753D01*
X44638Y47753D01*
X50293Y42098D01*
X50293Y34102D01*
X44638Y28447D01*
X36642Y28447D01*
G37*
%LPD*%
%LPC*%
G36*
X36642Y104647D02*
X36642Y104647D01*
X30987Y110302D01*
X30987Y118298D01*
X36642Y123953D01*
X44638Y123953D01*
X50293Y118298D01*
X50293Y110302D01*
X44638Y104647D01*
X36642Y104647D01*
G37*
%LPD*%
%LPC*%
G36*
X36642Y130047D02*
X36642Y130047D01*
X30987Y135702D01*
X30987Y143698D01*
X36642Y149353D01*
X44638Y149353D01*
X50293Y143698D01*
X50293Y135702D01*
X44638Y130047D01*
X36642Y130047D01*
G37*
%LPD*%
%LPC*%
G36*
X36642Y384047D02*
X36642Y384047D01*
X30987Y389702D01*
X30987Y397698D01*
X36642Y403353D01*
X44638Y403353D01*
X50293Y397698D01*
X50293Y389702D01*
X44638Y384047D01*
X36642Y384047D01*
G37*
%LPD*%
%LPC*%
G36*
X350519Y33019D02*
X350519Y33019D01*
X350519Y40641D01*
X356400Y40641D01*
X357979Y40391D01*
X359500Y39896D01*
X360925Y39170D01*
X362219Y38230D01*
X363350Y37099D01*
X364290Y35805D01*
X365016Y34380D01*
X365459Y33019D01*
X350519Y33019D01*
G37*
%LPD*%
%LPC*%
G36*
X330501Y33019D02*
X330501Y33019D01*
X330944Y34380D01*
X331670Y35805D01*
X332610Y37099D01*
X333741Y38230D01*
X335035Y39170D01*
X336460Y39896D01*
X337981Y40391D01*
X339560Y40641D01*
X345441Y40641D01*
X345441Y33019D01*
X330501Y33019D01*
G37*
%LPD*%
%LPC*%
G36*
X350519Y20319D02*
X350519Y20319D01*
X350519Y27941D01*
X365459Y27941D01*
X365016Y26580D01*
X364290Y25155D01*
X363350Y23861D01*
X362219Y22730D01*
X360925Y21790D01*
X359500Y21064D01*
X357979Y20569D01*
X356400Y20319D01*
X350519Y20319D01*
G37*
%LPD*%
%LPC*%
G36*
X339560Y20319D02*
X339560Y20319D01*
X337981Y20569D01*
X336460Y21064D01*
X335035Y21790D01*
X333741Y22730D01*
X332610Y23861D01*
X331670Y25155D01*
X330944Y26580D01*
X330501Y27941D01*
X345441Y27941D01*
X345441Y20319D01*
X339560Y20319D01*
G37*
%LPD*%
%LPC*%
G36*
X216590Y73299D02*
X216590Y73299D01*
X221979Y78688D01*
X226137Y74530D01*
X227077Y73236D01*
X227803Y71811D01*
X228298Y70290D01*
X228548Y68710D01*
X228548Y67111D01*
X228298Y65531D01*
X227803Y64010D01*
X227154Y62735D01*
X216590Y73299D01*
G37*
%LPD*%
%LPC*%
G36*
X202435Y87454D02*
X202435Y87454D01*
X203710Y88103D01*
X205231Y88598D01*
X206811Y88848D01*
X208410Y88848D01*
X209990Y88598D01*
X211511Y88103D01*
X212936Y87377D01*
X214230Y86437D01*
X218388Y82279D01*
X212999Y76890D01*
X202435Y87454D01*
G37*
%LPD*%
%LPC*%
G36*
X199861Y72068D02*
X199861Y72068D01*
X198921Y73362D01*
X198195Y74787D01*
X197700Y76308D01*
X197450Y77887D01*
X197450Y79487D01*
X197700Y81066D01*
X198195Y82588D01*
X198844Y83863D01*
X209408Y73299D01*
X204019Y67910D01*
X199861Y72068D01*
G37*
%LPD*%
%LPC*%
G36*
X217587Y57750D02*
X217587Y57750D01*
X216008Y58000D01*
X214487Y58495D01*
X213062Y59221D01*
X211768Y60161D01*
X207610Y64319D01*
X212999Y69708D01*
X223563Y59144D01*
X222288Y58495D01*
X220766Y58000D01*
X219187Y57750D01*
X217587Y57750D01*
G37*
%LPD*%
%LPC*%
G36*
X425449Y46429D02*
X425449Y46429D01*
X425449Y55471D01*
X432285Y55471D01*
X432931Y55298D01*
X433510Y54963D01*
X433983Y54490D01*
X434318Y53911D01*
X434491Y53265D01*
X434491Y46429D01*
X425449Y46429D01*
G37*
%LPD*%
%LPC*%
G36*
X409909Y46429D02*
X409909Y46429D01*
X409909Y53265D01*
X410082Y53911D01*
X410417Y54490D01*
X410890Y54963D01*
X411469Y55298D01*
X412115Y55471D01*
X418951Y55471D01*
X418951Y46429D01*
X409909Y46429D01*
G37*
%LPD*%
%LPC*%
G36*
X425449Y30889D02*
X425449Y30889D01*
X425449Y39931D01*
X434491Y39931D01*
X434491Y33095D01*
X434318Y32449D01*
X433983Y31870D01*
X433510Y31397D01*
X432931Y31062D01*
X432285Y30889D01*
X425449Y30889D01*
G37*
%LPD*%
%LPC*%
G36*
X412115Y30889D02*
X412115Y30889D01*
X411469Y31062D01*
X410890Y31397D01*
X410417Y31870D01*
X410082Y32449D01*
X409909Y33095D01*
X409909Y39931D01*
X418951Y39931D01*
X418951Y30889D01*
X412115Y30889D01*
G37*
%LPD*%
%LPC*%
G36*
X43179Y91439D02*
X43179Y91439D01*
X43179Y99061D01*
X44849Y99061D01*
X50801Y93109D01*
X50801Y91439D01*
X43179Y91439D01*
G37*
%LPD*%
%LPC*%
G36*
X17779Y116839D02*
X17779Y116839D01*
X17779Y124461D01*
X19449Y124461D01*
X25401Y118509D01*
X25401Y116839D01*
X17779Y116839D01*
G37*
%LPD*%
%LPC*%
G36*
X30479Y91439D02*
X30479Y91439D01*
X30479Y93109D01*
X36431Y99061D01*
X38101Y99061D01*
X38101Y91439D01*
X30479Y91439D01*
G37*
%LPD*%
%LPC*%
G36*
X43179Y78739D02*
X43179Y78739D01*
X43179Y86361D01*
X50801Y86361D01*
X50801Y84691D01*
X44849Y78739D01*
X43179Y78739D01*
G37*
%LPD*%
%LPC*%
G36*
X17779Y104139D02*
X17779Y104139D01*
X17779Y111761D01*
X25401Y111761D01*
X25401Y110091D01*
X19449Y104139D01*
X17779Y104139D01*
G37*
%LPD*%
%LPC*%
G36*
X36431Y78739D02*
X36431Y78739D01*
X30479Y84691D01*
X30479Y86361D01*
X38101Y86361D01*
X38101Y78739D01*
X36431Y78739D01*
G37*
%LPD*%
D10*
X279453Y150529D02*
X290229Y139753D01*
X272269Y121792D02*
X261492Y132569D01*
X243532Y114608D02*
X254308Y103832D01*
X236348Y85871D02*
X225571Y96648D01*
X207611Y78687D02*
X218387Y67911D01*
X558800Y55880D02*
X574040Y55880D01*
X574040Y30480D02*
X558800Y30480D01*
D11*
X40640Y419100D03*
X15240Y419100D03*
X40640Y393700D03*
X15240Y393700D03*
X40640Y368300D03*
X15240Y368300D03*
X40640Y342900D03*
X15240Y342900D03*
X40640Y317500D03*
X15240Y317500D03*
X40640Y292100D03*
X15240Y292100D03*
X40640Y266700D03*
X15240Y266700D03*
X40640Y241300D03*
X15240Y241300D03*
X40640Y215900D03*
X15240Y215900D03*
X40640Y190500D03*
X15240Y190500D03*
X40640Y165100D03*
X15240Y165100D03*
X40640Y139700D03*
X15240Y139700D03*
X40640Y114300D03*
X15240Y114300D03*
X40640Y88900D03*
X15240Y88900D03*
X40640Y63500D03*
X15240Y63500D03*
X40640Y38100D03*
X15240Y38100D03*
X40640Y12700D03*
X15240Y12700D03*
D10*
X340360Y55880D02*
X355600Y55880D01*
X355600Y30480D02*
X340360Y30480D01*
D12*
X527200Y43180D03*
X492200Y43180D03*
X457200Y43180D03*
X422200Y43180D03*
X387200Y43180D03*
D13*
X516890Y254000D03*
X396240Y345440D03*
X245110Y233680D03*
X189230Y123190D03*
X133350Y176530D03*
X312420Y294640D03*
D14*
X27940Y381000D02*
X15240Y393700D01*
X27940Y381000D02*
X27940Y152400D01*
X15240Y139700D01*
D15*
X469900Y100480D02*
X527200Y43180D01*
D13*
X469900Y100480D03*
M02*
