G04 EAGLE Gerber RS-274X export*
G75*
%MOMM*%
%FSLAX34Y34*%
%LPD*%
%IN*%
%IPPOS*%
%AMOC8*
5,1,8,0,0,1.08239X$1,22.5*%
G01*
%ADD10C,0.254000*%


D10*
X0Y0D02*
X571500Y0D01*
X573714Y97D01*
X575911Y386D01*
X578074Y865D01*
X580187Y1532D01*
X582235Y2380D01*
X584200Y3403D01*
X586069Y4594D01*
X587827Y5942D01*
X589461Y7440D01*
X590958Y9073D01*
X592306Y10831D01*
X593497Y12700D01*
X594520Y14666D01*
X595368Y16713D01*
X596035Y18826D01*
X596514Y20989D01*
X596803Y23186D01*
X596900Y25400D01*
X596900Y406400D01*
X596803Y408614D01*
X596514Y410811D01*
X596035Y412974D01*
X595368Y415087D01*
X594520Y417135D01*
X593497Y419100D01*
X592306Y420969D01*
X590958Y422727D01*
X589461Y424361D01*
X587827Y425858D01*
X586069Y427206D01*
X584200Y428397D01*
X582235Y429420D01*
X580187Y430268D01*
X578074Y430935D01*
X575911Y431414D01*
X573714Y431703D01*
X571500Y431800D01*
X0Y431800D01*
X0Y0D01*
X548400Y131544D02*
X548324Y130476D01*
X548171Y129415D01*
X547943Y128368D01*
X547641Y127340D01*
X547267Y126336D01*
X546822Y125361D01*
X546308Y124421D01*
X545729Y123520D01*
X545087Y122662D01*
X544385Y121852D01*
X543628Y121095D01*
X542818Y120393D01*
X541960Y119751D01*
X541059Y119172D01*
X540119Y118658D01*
X539144Y118213D01*
X538140Y117839D01*
X537112Y117537D01*
X536065Y117309D01*
X535004Y117156D01*
X533936Y117080D01*
X532864Y117080D01*
X531796Y117156D01*
X530735Y117309D01*
X529688Y117537D01*
X528660Y117839D01*
X527656Y118213D01*
X526681Y118658D01*
X525741Y119172D01*
X524840Y119751D01*
X523982Y120393D01*
X523172Y121095D01*
X522415Y121852D01*
X521713Y122662D01*
X521071Y123520D01*
X520492Y124421D01*
X519978Y125361D01*
X519533Y126336D01*
X519159Y127340D01*
X518857Y128368D01*
X518629Y129415D01*
X518476Y130476D01*
X518400Y131544D01*
X518400Y132616D01*
X518476Y133684D01*
X518629Y134745D01*
X518857Y135792D01*
X519159Y136820D01*
X519533Y137824D01*
X519978Y138799D01*
X520492Y139739D01*
X521071Y140640D01*
X521713Y141498D01*
X522415Y142308D01*
X523172Y143065D01*
X523982Y143767D01*
X524840Y144409D01*
X525741Y144988D01*
X526681Y145502D01*
X527656Y145947D01*
X528660Y146321D01*
X529688Y146623D01*
X530735Y146851D01*
X531796Y147004D01*
X532864Y147080D01*
X533936Y147080D01*
X535004Y147004D01*
X536065Y146851D01*
X537112Y146623D01*
X538140Y146321D01*
X539144Y145947D01*
X540119Y145502D01*
X541059Y144988D01*
X541960Y144409D01*
X542818Y143767D01*
X543628Y143065D01*
X544385Y142308D01*
X545087Y141498D01*
X545729Y140640D01*
X546308Y139739D01*
X546822Y138799D01*
X547267Y137824D01*
X547641Y136820D01*
X547943Y135792D01*
X548171Y134745D01*
X548324Y133684D01*
X548400Y132616D01*
X548400Y131544D01*
M02*
