G04 EAGLE Gerber RS-274X export*
G75*
%MOMM*%
%FSLAX34Y34*%
%LPD*%
%INSilkscreen Top*%
%IPPOS*%
%AMOC8*
5,1,8,0,0,1.08239X$1,22.5*%
G01*
%ADD10C,0.127000*%
%ADD11C,0.101600*%
%ADD12C,0.152400*%
%ADD13C,0.632400*%
%ADD14C,0.203200*%
%ADD15C,0.364000*%
%ADD16C,0.076200*%


D10*
X89535Y408318D02*
X99704Y408318D01*
X99704Y405776D01*
X89535Y395607D01*
X89535Y393065D01*
X99704Y393065D01*
X104737Y408318D02*
X114906Y408318D01*
X104737Y408318D02*
X104737Y393065D01*
X114906Y393065D01*
X109822Y400692D02*
X104737Y400692D01*
X119939Y398149D02*
X119939Y408318D01*
X119939Y398149D02*
X125024Y393065D01*
X130108Y398149D01*
X130108Y408318D01*
X135142Y403234D02*
X135142Y393065D01*
X135142Y403234D02*
X140226Y408318D01*
X145310Y403234D01*
X145310Y393065D01*
X145310Y400692D02*
X135142Y400692D01*
X165546Y408318D02*
X175715Y408318D01*
X165546Y408318D02*
X165546Y393065D01*
X175715Y393065D01*
X170630Y400692D02*
X165546Y400692D01*
X180748Y398149D02*
X180748Y408318D01*
X180748Y398149D02*
X185832Y393065D01*
X190917Y398149D01*
X190917Y408318D01*
X195950Y408318D02*
X195950Y393065D01*
X201035Y403234D02*
X195950Y408318D01*
X201035Y403234D02*
X206119Y408318D01*
X206119Y393065D01*
X221321Y405776D02*
X218779Y408318D01*
X213695Y408318D01*
X211153Y405776D01*
X211153Y403234D01*
X213695Y400692D01*
X218779Y400692D01*
X221321Y398149D01*
X221321Y395607D01*
X218779Y393065D01*
X213695Y393065D01*
X211153Y395607D01*
X241557Y393065D02*
X241557Y408318D01*
X246641Y403234D01*
X251726Y408318D01*
X251726Y393065D01*
X259301Y393065D02*
X264386Y393065D01*
X266928Y395607D01*
X266928Y400692D01*
X264386Y403234D01*
X259301Y403234D01*
X256759Y400692D01*
X256759Y395607D01*
X259301Y393065D01*
X271961Y393065D02*
X271961Y403234D01*
X279588Y403234D01*
X282130Y400692D01*
X282130Y393065D01*
X287163Y403234D02*
X289706Y403234D01*
X289706Y393065D01*
X292248Y393065D02*
X287163Y393065D01*
X289706Y408318D02*
X289706Y410860D01*
X299840Y405776D02*
X299840Y395607D01*
X302383Y393065D01*
X302383Y403234D02*
X297298Y403234D01*
X309975Y393065D02*
X315060Y393065D01*
X317602Y395607D01*
X317602Y400692D01*
X315060Y403234D01*
X309975Y403234D01*
X307433Y400692D01*
X307433Y395607D01*
X309975Y393065D01*
X322635Y393065D02*
X322635Y403234D01*
X322635Y398149D02*
X327720Y403234D01*
X330262Y403234D01*
X350506Y408318D02*
X350506Y398149D01*
X355590Y393065D01*
X360675Y398149D01*
X360675Y408318D01*
X365708Y405776D02*
X368250Y408318D01*
X373335Y408318D01*
X375877Y405776D01*
X375877Y403234D01*
X373335Y400692D01*
X370792Y400692D01*
X373335Y400692D02*
X375877Y398149D01*
X375877Y395607D01*
X373335Y393065D01*
X368250Y393065D01*
X365708Y395607D01*
X380910Y395607D02*
X380910Y393065D01*
X380910Y395607D02*
X383452Y395607D01*
X383452Y393065D01*
X380910Y393065D01*
X388511Y403234D02*
X393596Y408318D01*
X393596Y393065D01*
X398680Y393065D02*
X388511Y393065D01*
X418916Y398149D02*
X424000Y393065D01*
X418916Y398149D02*
X418916Y403234D01*
X424000Y408318D01*
X431593Y408318D02*
X436677Y408318D01*
X431593Y408318D02*
X429050Y405776D01*
X429050Y395607D01*
X431593Y393065D01*
X436677Y393065D01*
X439219Y395607D01*
X439219Y405776D01*
X436677Y408318D01*
X451879Y408318D02*
X454421Y405776D01*
X451879Y408318D02*
X446795Y408318D01*
X444253Y405776D01*
X444253Y403234D01*
X446795Y400692D01*
X451879Y400692D01*
X454421Y398149D01*
X454421Y395607D01*
X451879Y393065D01*
X446795Y393065D01*
X444253Y395607D01*
X474657Y408318D02*
X484826Y408318D01*
X474657Y408318D02*
X474657Y393065D01*
X484826Y393065D01*
X479741Y400692D02*
X474657Y400692D01*
X500028Y408318D02*
X500028Y393065D01*
X492401Y393065D01*
X489859Y395607D01*
X489859Y400692D01*
X492401Y403234D01*
X500028Y403234D01*
X505061Y403234D02*
X507604Y403234D01*
X507604Y393065D01*
X510146Y393065D02*
X505061Y393065D01*
X507604Y408318D02*
X507604Y410860D01*
X517738Y405776D02*
X517738Y395607D01*
X520281Y393065D01*
X520281Y403234D02*
X515196Y403234D01*
X525331Y403234D02*
X527873Y403234D01*
X527873Y393065D01*
X525331Y393065D02*
X530415Y393065D01*
X527873Y408318D02*
X527873Y410860D01*
X538008Y393065D02*
X543092Y393065D01*
X545634Y395607D01*
X545634Y400692D01*
X543092Y403234D01*
X538008Y403234D01*
X535466Y400692D01*
X535466Y395607D01*
X538008Y393065D01*
X550668Y393065D02*
X550668Y403234D01*
X558294Y403234D01*
X560837Y400692D01*
X560837Y393065D01*
X565870Y393065D02*
X570954Y398149D01*
X570954Y403234D01*
X565870Y408318D01*
X368935Y379104D02*
X368935Y371477D01*
X371477Y368935D01*
X374019Y371477D01*
X376562Y368935D01*
X379104Y371477D01*
X379104Y379104D01*
X384137Y379104D02*
X384137Y371477D01*
X386679Y368935D01*
X389222Y371477D01*
X391764Y368935D01*
X394306Y371477D01*
X394306Y379104D01*
X399339Y379104D02*
X399339Y371477D01*
X401882Y368935D01*
X404424Y371477D01*
X406966Y368935D01*
X409508Y371477D01*
X409508Y379104D01*
X414542Y371477D02*
X414542Y368935D01*
X414542Y371477D02*
X417084Y371477D01*
X417084Y368935D01*
X414542Y368935D01*
X422143Y379104D02*
X432311Y379104D01*
X422143Y368935D01*
X432311Y368935D01*
X439887Y368935D02*
X444971Y368935D01*
X439887Y368935D02*
X437345Y371477D01*
X437345Y376562D01*
X439887Y379104D01*
X444971Y379104D01*
X447514Y376562D01*
X447514Y374019D01*
X437345Y374019D01*
X452547Y379104D02*
X457631Y368935D01*
X462716Y379104D01*
X470291Y379104D02*
X475376Y379104D01*
X477918Y376562D01*
X477918Y368935D01*
X470291Y368935D01*
X467749Y371477D01*
X470291Y374019D01*
X477918Y374019D01*
X482951Y371477D02*
X482951Y368935D01*
X482951Y371477D02*
X485494Y371477D01*
X485494Y368935D01*
X482951Y368935D01*
X493095Y379104D02*
X500721Y379104D01*
X493095Y379104D02*
X490553Y376562D01*
X490553Y371477D01*
X493095Y368935D01*
X500721Y368935D01*
X508297Y368935D02*
X513381Y368935D01*
X515923Y371477D01*
X515923Y376562D01*
X513381Y379104D01*
X508297Y379104D01*
X505755Y376562D01*
X505755Y371477D01*
X508297Y368935D01*
X520957Y368935D02*
X520957Y379104D01*
X523499Y379104D01*
X526041Y376562D01*
X526041Y368935D01*
X526041Y376562D02*
X528583Y379104D01*
X531126Y376562D01*
X531126Y368935D01*
X536159Y368935D02*
X536159Y371477D01*
X538701Y371477D01*
X538701Y368935D01*
X536159Y368935D01*
X546302Y379104D02*
X551387Y379104D01*
X553929Y376562D01*
X553929Y368935D01*
X546302Y368935D01*
X543760Y371477D01*
X546302Y374019D01*
X553929Y374019D01*
X558962Y371477D02*
X558962Y379104D01*
X558962Y371477D02*
X561505Y368935D01*
X569131Y368935D01*
X569131Y379104D01*
D11*
X166262Y77563D02*
X164313Y79512D01*
X160415Y79512D01*
X158466Y77563D01*
X158466Y69767D01*
X160415Y67818D01*
X164313Y67818D01*
X166262Y69767D01*
X166262Y73665D01*
X162364Y73665D01*
X170160Y75614D02*
X170160Y67818D01*
X170160Y75614D02*
X176007Y75614D01*
X177956Y73665D01*
X177956Y67818D01*
X189650Y67818D02*
X189650Y79512D01*
X189650Y67818D02*
X183803Y67818D01*
X181854Y69767D01*
X181854Y73665D01*
X183803Y75614D01*
X189650Y75614D01*
X312919Y26204D02*
X323342Y26204D01*
X323342Y33152D01*
X323342Y38465D02*
X323342Y41940D01*
X321605Y43677D01*
X318131Y43677D01*
X316393Y41940D01*
X316393Y38465D01*
X318131Y36728D01*
X321605Y36728D01*
X323342Y38465D01*
X316393Y48990D02*
X316393Y54202D01*
X316393Y48990D02*
X318131Y47253D01*
X321605Y47253D01*
X323342Y48990D01*
X323342Y54202D01*
X323342Y57778D02*
X312919Y57778D01*
X319868Y57778D02*
X323342Y62989D01*
X319868Y57778D02*
X316393Y62989D01*
D12*
X193555Y106751D02*
X187445Y106751D01*
X286667Y206538D02*
X290004Y203200D01*
X193838Y299367D02*
X190500Y302704D01*
X187162Y299367D01*
X94333Y206538D02*
X90996Y203200D01*
X286539Y199735D02*
X290004Y203200D01*
X94333Y199862D02*
X90996Y203200D01*
X184911Y120043D02*
X184913Y120192D01*
X184919Y120342D01*
X184929Y120491D01*
X184943Y120640D01*
X184961Y120788D01*
X184983Y120936D01*
X185009Y121083D01*
X185038Y121229D01*
X185072Y121375D01*
X185110Y121520D01*
X185151Y121663D01*
X185196Y121806D01*
X185245Y121947D01*
X185298Y122087D01*
X185354Y122225D01*
X185415Y122362D01*
X185478Y122497D01*
X185546Y122630D01*
X185617Y122762D01*
X185691Y122891D01*
X185769Y123019D01*
X185850Y123144D01*
X185935Y123267D01*
X186023Y123388D01*
X186114Y123507D01*
X186208Y123623D01*
X186305Y123736D01*
X186405Y123847D01*
X186509Y123955D01*
X186615Y124061D01*
X186723Y124163D01*
X186835Y124262D01*
X186949Y124359D01*
X187066Y124452D01*
X187185Y124543D01*
X187306Y124630D01*
X187430Y124713D01*
X187556Y124794D01*
X187684Y124871D01*
X187814Y124944D01*
X187946Y125014D01*
X188080Y125081D01*
X188215Y125144D01*
X188353Y125203D01*
X188491Y125259D01*
X188631Y125310D01*
X188773Y125358D01*
X188916Y125403D01*
X189059Y125443D01*
X189204Y125480D01*
X189350Y125512D01*
X189497Y125541D01*
X189644Y125566D01*
X189792Y125587D01*
X189941Y125604D01*
X190089Y125617D01*
X190239Y125626D01*
X190388Y125631D01*
X190537Y125632D01*
X190687Y125629D01*
X190836Y125622D01*
X190985Y125611D01*
X191134Y125596D01*
X191282Y125577D01*
X191430Y125554D01*
X191577Y125527D01*
X191723Y125497D01*
X191868Y125462D01*
X192013Y125423D01*
X192156Y125381D01*
X192298Y125335D01*
X192439Y125285D01*
X192578Y125231D01*
X192716Y125174D01*
X192853Y125113D01*
X192987Y125048D01*
X193120Y124980D01*
X193251Y124908D01*
X193380Y124833D01*
X193507Y124754D01*
X193632Y124672D01*
X193755Y124586D01*
X193875Y124498D01*
X193993Y124406D01*
X194108Y124311D01*
X194221Y124213D01*
X194331Y124112D01*
X194439Y124008D01*
X194543Y123901D01*
X194645Y123792D01*
X194744Y123680D01*
X194840Y123565D01*
X194932Y123448D01*
X195022Y123328D01*
X195108Y123206D01*
X195191Y123082D01*
X195270Y122955D01*
X195346Y122827D01*
X195419Y122696D01*
X195488Y122564D01*
X195554Y122429D01*
X195616Y122293D01*
X195674Y122156D01*
X195729Y122017D01*
X195780Y121876D01*
X195827Y121735D01*
X195870Y121592D01*
X195910Y121447D01*
X195945Y121302D01*
X195977Y121156D01*
X196005Y121009D01*
X196029Y120862D01*
X196049Y120714D01*
X196065Y120565D01*
X196077Y120416D01*
X196085Y120267D01*
X196089Y120118D01*
X196089Y119968D01*
X196085Y119819D01*
X196077Y119670D01*
X196065Y119521D01*
X196049Y119372D01*
X196029Y119224D01*
X196005Y119077D01*
X195977Y118930D01*
X195945Y118784D01*
X195910Y118639D01*
X195870Y118494D01*
X195827Y118351D01*
X195780Y118210D01*
X195729Y118069D01*
X195674Y117930D01*
X195616Y117793D01*
X195554Y117657D01*
X195488Y117522D01*
X195419Y117390D01*
X195346Y117259D01*
X195270Y117131D01*
X195191Y117004D01*
X195108Y116880D01*
X195022Y116758D01*
X194932Y116638D01*
X194840Y116521D01*
X194744Y116406D01*
X194645Y116294D01*
X194543Y116185D01*
X194439Y116078D01*
X194331Y115974D01*
X194221Y115873D01*
X194108Y115775D01*
X193993Y115680D01*
X193875Y115588D01*
X193755Y115500D01*
X193632Y115414D01*
X193507Y115332D01*
X193380Y115253D01*
X193251Y115178D01*
X193120Y115106D01*
X192987Y115038D01*
X192853Y114973D01*
X192716Y114912D01*
X192578Y114855D01*
X192439Y114801D01*
X192298Y114751D01*
X192156Y114705D01*
X192013Y114663D01*
X191868Y114624D01*
X191723Y114589D01*
X191577Y114559D01*
X191430Y114532D01*
X191282Y114509D01*
X191134Y114490D01*
X190985Y114475D01*
X190836Y114464D01*
X190687Y114457D01*
X190537Y114454D01*
X190388Y114455D01*
X190239Y114460D01*
X190089Y114469D01*
X189941Y114482D01*
X189792Y114499D01*
X189644Y114520D01*
X189497Y114545D01*
X189350Y114574D01*
X189204Y114606D01*
X189059Y114643D01*
X188916Y114683D01*
X188773Y114728D01*
X188631Y114776D01*
X188491Y114827D01*
X188353Y114883D01*
X188215Y114942D01*
X188080Y115005D01*
X187946Y115072D01*
X187814Y115142D01*
X187684Y115215D01*
X187556Y115292D01*
X187430Y115373D01*
X187306Y115456D01*
X187185Y115543D01*
X187066Y115634D01*
X186949Y115727D01*
X186835Y115824D01*
X186723Y115923D01*
X186615Y116025D01*
X186509Y116131D01*
X186405Y116239D01*
X186305Y116350D01*
X186208Y116463D01*
X186114Y116579D01*
X186023Y116698D01*
X185935Y116819D01*
X185850Y116942D01*
X185769Y117067D01*
X185691Y117195D01*
X185617Y117324D01*
X185546Y117456D01*
X185478Y117589D01*
X185415Y117724D01*
X185354Y117861D01*
X185298Y117999D01*
X185245Y118139D01*
X185196Y118280D01*
X185151Y118423D01*
X185110Y118566D01*
X185072Y118711D01*
X185038Y118857D01*
X185009Y119003D01*
X184983Y119150D01*
X184961Y119298D01*
X184943Y119446D01*
X184929Y119595D01*
X184919Y119744D01*
X184913Y119894D01*
X184911Y120043D01*
D13*
X190500Y101377D03*
D11*
X153688Y113406D02*
X145898Y105617D01*
X145898Y102501D01*
X149014Y99385D01*
X152130Y99385D01*
X159919Y107175D01*
X159833Y101029D02*
X166065Y101029D01*
X156717Y91682D01*
X153601Y94798D02*
X159833Y88566D01*
X290058Y314965D02*
X292007Y316914D01*
X290058Y314965D02*
X290058Y311067D01*
X292007Y309118D01*
X299803Y309118D01*
X301752Y311067D01*
X301752Y314965D01*
X299803Y316914D01*
X293956Y320812D02*
X290058Y324710D01*
X301752Y324710D01*
X301752Y320812D02*
X301752Y328608D01*
X494528Y321290D02*
X506222Y321290D01*
X494528Y321290D02*
X494528Y327137D01*
X496477Y329086D01*
X500375Y329086D01*
X502324Y327137D01*
X502324Y321290D01*
X502324Y325188D02*
X506222Y329086D01*
X498426Y332984D02*
X494528Y336882D01*
X506222Y336882D01*
X506222Y332984D02*
X506222Y340780D01*
X325027Y265586D02*
X323078Y263637D01*
X323078Y259739D01*
X325027Y257790D01*
X332823Y257790D01*
X334772Y259739D01*
X334772Y263637D01*
X332823Y265586D01*
X334772Y269484D02*
X334772Y277280D01*
X334772Y269484D02*
X326976Y277280D01*
X325027Y277280D01*
X323078Y275331D01*
X323078Y271433D01*
X325027Y269484D01*
D14*
X264170Y284140D02*
X264170Y305140D01*
X277670Y323640D02*
X283670Y323640D01*
X297170Y305140D02*
X297170Y284140D01*
X283670Y265640D02*
X277670Y265640D01*
D15*
X282670Y274140D03*
D11*
X252813Y269748D02*
X245017Y269748D01*
X243068Y271697D01*
X243068Y275595D01*
X245017Y277544D01*
X252813Y277544D01*
X254762Y275595D01*
X254762Y271697D01*
X252813Y269748D01*
X250864Y273646D02*
X254762Y277544D01*
X246966Y281442D02*
X243068Y285340D01*
X254762Y285340D01*
X254762Y281442D02*
X254762Y289238D01*
X258203Y108744D02*
X260959Y108744D01*
X258203Y108744D02*
X255447Y105987D01*
X255447Y103231D01*
X260959Y97718D01*
X263716Y97718D01*
X266472Y100475D01*
X266472Y103231D01*
X263716Y111500D02*
X263716Y114256D01*
X266472Y117013D01*
X269228Y117013D01*
X270606Y115634D01*
X270606Y112878D01*
X269228Y111500D01*
X270606Y112878D02*
X273363Y112878D01*
X274741Y111500D01*
X274741Y108744D01*
X271984Y105987D01*
X269228Y105987D01*
D12*
X244430Y86769D02*
X235450Y77789D01*
X226469Y77789D01*
X217489Y86769D01*
X217489Y95750D01*
X262390Y104730D02*
X262390Y113710D01*
X262390Y104730D02*
X253410Y95750D01*
X244430Y95750D01*
X235450Y104730D01*
X235450Y113710D01*
X244430Y122690D01*
X253410Y122690D01*
X244430Y95750D02*
X244430Y86769D01*
X235450Y104730D02*
X226469Y104730D01*
X217489Y95750D01*
X289331Y131671D02*
X298311Y140651D01*
X289331Y131671D02*
X280351Y131671D01*
X271371Y140651D01*
X271371Y149631D01*
X280351Y131671D02*
X280351Y122690D01*
X271371Y113710D01*
X262390Y113710D01*
X253410Y122690D01*
X253410Y131671D01*
X262390Y140651D01*
X271371Y140651D01*
X289331Y158611D02*
X298311Y149631D01*
X298311Y140651D01*
X289331Y158611D02*
X280351Y158611D01*
X271371Y149631D01*
X226469Y68809D02*
X217489Y59829D01*
X208509Y59829D01*
X199529Y68809D01*
X199529Y77789D01*
X226469Y77789D02*
X226469Y68809D01*
X217489Y86769D02*
X208509Y86769D01*
X199529Y77789D01*
D10*
X275107Y108660D02*
X283196Y100571D01*
X275107Y108660D02*
X279152Y112704D01*
X281848Y112704D01*
X284544Y110008D01*
X284544Y107312D01*
X280500Y103267D01*
X291465Y108840D02*
X283376Y116929D01*
X287421Y120973D01*
X290117Y120973D01*
X292813Y118277D01*
X292813Y115580D01*
X288769Y111536D01*
X291465Y114232D02*
X296858Y114232D01*
X292993Y126546D02*
X295689Y129242D01*
X292993Y126546D02*
X292993Y123849D01*
X298386Y118457D01*
X301082Y118457D01*
X303779Y121153D01*
X303779Y123849D01*
X298386Y129242D01*
X295689Y129242D01*
X303958Y137511D02*
X306655Y137511D01*
X303958Y137511D02*
X301262Y134815D01*
X301262Y132118D01*
X306655Y126725D01*
X309351Y126725D01*
X312047Y129422D01*
X312047Y132118D01*
X309351Y134815D01*
X306655Y132118D01*
X533400Y234950D02*
X533400Y273050D01*
X482600Y273050D02*
X482600Y234950D01*
X523240Y266700D02*
X523242Y266823D01*
X523248Y266947D01*
X523258Y267070D01*
X523272Y267192D01*
X523290Y267314D01*
X523312Y267436D01*
X523337Y267556D01*
X523367Y267676D01*
X523401Y267795D01*
X523438Y267913D01*
X523479Y268029D01*
X523524Y268144D01*
X523573Y268257D01*
X523625Y268369D01*
X523681Y268479D01*
X523740Y268587D01*
X523803Y268693D01*
X523869Y268797D01*
X523939Y268899D01*
X524012Y268999D01*
X524088Y269096D01*
X524167Y269191D01*
X524249Y269283D01*
X524334Y269372D01*
X524422Y269459D01*
X524513Y269542D01*
X524606Y269623D01*
X524702Y269701D01*
X524801Y269775D01*
X524901Y269846D01*
X525004Y269914D01*
X525109Y269979D01*
X525217Y270040D01*
X525326Y270098D01*
X525437Y270152D01*
X525549Y270202D01*
X525664Y270249D01*
X525779Y270292D01*
X525896Y270331D01*
X526014Y270367D01*
X526134Y270398D01*
X526254Y270426D01*
X526375Y270450D01*
X526497Y270470D01*
X526619Y270486D01*
X526742Y270498D01*
X526865Y270506D01*
X526988Y270510D01*
X527112Y270510D01*
X527235Y270506D01*
X527358Y270498D01*
X527481Y270486D01*
X527603Y270470D01*
X527725Y270450D01*
X527846Y270426D01*
X527966Y270398D01*
X528086Y270367D01*
X528204Y270331D01*
X528321Y270292D01*
X528436Y270249D01*
X528551Y270202D01*
X528663Y270152D01*
X528774Y270098D01*
X528883Y270040D01*
X528991Y269979D01*
X529096Y269914D01*
X529199Y269846D01*
X529299Y269775D01*
X529398Y269701D01*
X529494Y269623D01*
X529587Y269542D01*
X529678Y269459D01*
X529766Y269372D01*
X529851Y269283D01*
X529933Y269191D01*
X530012Y269096D01*
X530088Y268999D01*
X530161Y268899D01*
X530231Y268797D01*
X530297Y268693D01*
X530360Y268587D01*
X530419Y268479D01*
X530475Y268369D01*
X530527Y268257D01*
X530576Y268144D01*
X530621Y268029D01*
X530662Y267913D01*
X530699Y267795D01*
X530733Y267676D01*
X530763Y267556D01*
X530788Y267436D01*
X530810Y267314D01*
X530828Y267192D01*
X530842Y267070D01*
X530852Y266947D01*
X530858Y266823D01*
X530860Y266700D01*
X530858Y266577D01*
X530852Y266453D01*
X530842Y266330D01*
X530828Y266208D01*
X530810Y266086D01*
X530788Y265964D01*
X530763Y265844D01*
X530733Y265724D01*
X530699Y265605D01*
X530662Y265487D01*
X530621Y265371D01*
X530576Y265256D01*
X530527Y265143D01*
X530475Y265031D01*
X530419Y264921D01*
X530360Y264813D01*
X530297Y264707D01*
X530231Y264603D01*
X530161Y264501D01*
X530088Y264401D01*
X530012Y264304D01*
X529933Y264209D01*
X529851Y264117D01*
X529766Y264028D01*
X529678Y263941D01*
X529587Y263858D01*
X529494Y263777D01*
X529398Y263699D01*
X529299Y263625D01*
X529199Y263554D01*
X529096Y263486D01*
X528991Y263421D01*
X528883Y263360D01*
X528774Y263302D01*
X528663Y263248D01*
X528551Y263198D01*
X528436Y263151D01*
X528321Y263108D01*
X528204Y263069D01*
X528086Y263033D01*
X527966Y263002D01*
X527846Y262974D01*
X527725Y262950D01*
X527603Y262930D01*
X527481Y262914D01*
X527358Y262902D01*
X527235Y262894D01*
X527112Y262890D01*
X526988Y262890D01*
X526865Y262894D01*
X526742Y262902D01*
X526619Y262914D01*
X526497Y262930D01*
X526375Y262950D01*
X526254Y262974D01*
X526134Y263002D01*
X526014Y263033D01*
X525896Y263069D01*
X525779Y263108D01*
X525664Y263151D01*
X525549Y263198D01*
X525437Y263248D01*
X525326Y263302D01*
X525217Y263360D01*
X525109Y263421D01*
X525004Y263486D01*
X524901Y263554D01*
X524801Y263625D01*
X524702Y263699D01*
X524606Y263777D01*
X524513Y263858D01*
X524422Y263941D01*
X524334Y264028D01*
X524249Y264117D01*
X524167Y264209D01*
X524088Y264304D01*
X524012Y264401D01*
X523939Y264501D01*
X523869Y264603D01*
X523803Y264707D01*
X523740Y264813D01*
X523681Y264921D01*
X523625Y265031D01*
X523573Y265143D01*
X523524Y265256D01*
X523479Y265371D01*
X523438Y265487D01*
X523401Y265605D01*
X523367Y265724D01*
X523337Y265844D01*
X523312Y265964D01*
X523290Y266086D01*
X523272Y266208D01*
X523258Y266330D01*
X523248Y266453D01*
X523242Y266577D01*
X523240Y266700D01*
D16*
X494246Y256715D02*
X493017Y257943D01*
X490560Y257943D01*
X489331Y256715D01*
X489331Y255486D01*
X490560Y254257D01*
X493017Y254257D01*
X494246Y253028D01*
X494246Y251800D01*
X493017Y250571D01*
X490560Y250571D01*
X489331Y251800D01*
X496815Y250571D02*
X496815Y257943D01*
X501730Y250571D01*
X501730Y257943D01*
X506757Y256715D02*
X509214Y257943D01*
X506757Y256715D02*
X504299Y254257D01*
X504299Y251800D01*
X505528Y250571D01*
X507985Y250571D01*
X509214Y251800D01*
X509214Y253028D01*
X507985Y254257D01*
X504299Y254257D01*
X511783Y257943D02*
X516698Y257943D01*
X511783Y257943D02*
X511783Y254257D01*
X514241Y255486D01*
X515470Y255486D01*
X516698Y254257D01*
X516698Y251800D01*
X515470Y250571D01*
X513012Y250571D01*
X511783Y251800D01*
X519268Y250571D02*
X519268Y257943D01*
X519268Y254257D02*
X524182Y254257D01*
X524182Y257943D02*
X524182Y250571D01*
X526752Y253028D02*
X526752Y257943D01*
X526752Y253028D02*
X529209Y250571D01*
X531667Y253028D01*
X531667Y257943D01*
X534236Y257943D02*
X534236Y250571D01*
X537922Y250571D01*
X539151Y251800D01*
X539151Y256715D01*
X537922Y257943D01*
X534236Y257943D01*
X541720Y255486D02*
X544178Y257943D01*
X544178Y250571D01*
X546635Y250571D02*
X541720Y250571D01*
X549204Y251800D02*
X549204Y256715D01*
X550433Y257943D01*
X552890Y257943D01*
X554119Y256715D01*
X554119Y251800D01*
X552890Y250571D01*
X550433Y250571D01*
X549204Y251800D01*
X554119Y256715D01*
X560375Y257943D02*
X560375Y250571D01*
X556688Y254257D02*
X560375Y257943D01*
X561603Y254257D02*
X556688Y254257D01*
X564173Y251800D02*
X564173Y256715D01*
X565401Y257943D01*
X567859Y257943D01*
X569087Y256715D01*
X569087Y251800D01*
X567859Y250571D01*
X565401Y250571D01*
X564173Y251800D01*
X569087Y256715D01*
D12*
X350656Y275996D02*
X350656Y303124D01*
X361244Y303124D01*
X396104Y303124D02*
X396104Y275996D01*
X396104Y303124D02*
X386016Y303124D01*
X367604Y275916D02*
X364016Y275916D01*
X379016Y275916D02*
X382604Y275916D01*
D11*
X355736Y312078D02*
X351838Y312078D01*
X353787Y312078D02*
X353787Y323772D01*
X351838Y323772D02*
X355736Y323772D01*
X365481Y323772D02*
X367430Y321823D01*
X365481Y323772D02*
X361583Y323772D01*
X359634Y321823D01*
X359634Y314027D01*
X361583Y312078D01*
X365481Y312078D01*
X367430Y314027D01*
X371328Y319874D02*
X375226Y323772D01*
X375226Y312078D01*
X371328Y312078D02*
X379124Y312078D01*
D12*
X451984Y308204D02*
X451984Y281076D01*
X441396Y281076D01*
X406536Y281076D02*
X406536Y308204D01*
X406536Y281076D02*
X416624Y281076D01*
X435036Y308284D02*
X438624Y308284D01*
X423624Y308284D02*
X420036Y308284D01*
D11*
X420634Y260438D02*
X424532Y260438D01*
X422583Y260438D02*
X422583Y272132D01*
X420634Y272132D02*
X424532Y272132D01*
X434277Y272132D02*
X436226Y270183D01*
X434277Y272132D02*
X430379Y272132D01*
X428430Y270183D01*
X428430Y262387D01*
X430379Y260438D01*
X434277Y260438D01*
X436226Y262387D01*
X440124Y260438D02*
X447920Y260438D01*
X440124Y260438D02*
X447920Y268234D01*
X447920Y270183D01*
X445971Y272132D01*
X442073Y272132D01*
X440124Y270183D01*
X418768Y258422D02*
X418768Y246728D01*
X424615Y246728D01*
X426564Y248677D01*
X426564Y256473D01*
X424615Y258422D01*
X418768Y258422D01*
X430462Y254524D02*
X434360Y258422D01*
X434360Y246728D01*
X430462Y246728D02*
X438258Y246728D01*
X519928Y321290D02*
X531622Y321290D01*
X519928Y321290D02*
X519928Y327137D01*
X521877Y329086D01*
X525775Y329086D01*
X527724Y327137D01*
X527724Y321290D01*
X527724Y325188D02*
X531622Y329086D01*
X531622Y332984D02*
X531622Y340780D01*
X531622Y332984D02*
X523826Y340780D01*
X521877Y340780D01*
X519928Y338831D01*
X519928Y334933D01*
X521877Y332984D01*
X521462Y316738D02*
X509768Y316738D01*
X509768Y322585D01*
X511717Y324534D01*
X515615Y324534D01*
X517564Y322585D01*
X517564Y316738D01*
X517564Y320636D02*
X521462Y324534D01*
X511717Y328432D02*
X509768Y330381D01*
X509768Y334279D01*
X511717Y336228D01*
X513666Y336228D01*
X515615Y334279D01*
X515615Y332330D01*
X515615Y334279D02*
X517564Y336228D01*
X519513Y336228D01*
X521462Y334279D01*
X521462Y330381D01*
X519513Y328432D01*
X424864Y359503D02*
X422915Y361452D01*
X419017Y361452D01*
X417068Y359503D01*
X417068Y351707D01*
X419017Y349758D01*
X422915Y349758D01*
X424864Y351707D01*
X428762Y361452D02*
X436558Y361452D01*
X436558Y359503D01*
X428762Y351707D01*
X428762Y349758D01*
D12*
X579120Y62230D02*
X579120Y49530D01*
X572770Y43180D01*
X560070Y43180D01*
X553720Y49530D01*
X560070Y68580D02*
X572770Y68580D01*
X579120Y62230D01*
X560070Y68580D02*
X553720Y62230D01*
X553720Y49530D01*
X572770Y43180D02*
X579120Y36830D01*
X579120Y24130D01*
X572770Y17780D01*
X560070Y17780D01*
X553720Y24130D01*
X553720Y36830D01*
X560070Y43180D01*
D10*
X587240Y-4254D02*
X585333Y-6161D01*
X585333Y-9974D01*
X587240Y-11881D01*
X594866Y-11881D01*
X596773Y-9974D01*
X596773Y-6161D01*
X594866Y-4254D01*
X596773Y-187D02*
X589147Y-187D01*
X585333Y3626D01*
X589147Y7440D01*
X596773Y7440D01*
X591053Y7440D02*
X591053Y-187D01*
X596773Y11507D02*
X585333Y11507D01*
X596773Y19134D01*
X585333Y19134D01*
X585333Y27014D02*
X596773Y27014D01*
X585333Y23201D02*
X585333Y30827D01*
X585333Y34895D02*
X585333Y42521D01*
X585333Y34895D02*
X596773Y34895D01*
X596773Y42521D01*
X591053Y38708D02*
X591053Y34895D01*
X596773Y46589D02*
X585333Y46589D01*
X585333Y52309D01*
X587240Y54215D01*
X591053Y54215D01*
X592960Y52309D01*
X592960Y46589D01*
X592960Y50402D02*
X596773Y54215D01*
X596773Y58283D02*
X585333Y58283D01*
X589147Y62096D01*
X585333Y65909D01*
X596773Y65909D01*
D11*
X597662Y87610D02*
X585968Y87610D01*
X585968Y93457D01*
X587917Y95406D01*
X591815Y95406D01*
X593764Y93457D01*
X593764Y87610D01*
X593764Y91508D02*
X597662Y95406D01*
X597662Y105151D02*
X585968Y105151D01*
X591815Y99304D01*
X591815Y107100D01*
D10*
X444500Y251460D02*
X414020Y251460D01*
X414020Y266700D01*
X444500Y266700D01*
X444500Y251460D01*
D11*
X370996Y311243D02*
X369047Y313192D01*
X365149Y313192D01*
X363200Y311243D01*
X363200Y303447D01*
X365149Y301498D01*
X369047Y301498D01*
X370996Y303447D01*
X374894Y303447D02*
X376843Y301498D01*
X380741Y301498D01*
X382690Y303447D01*
X382690Y311243D01*
X380741Y313192D01*
X376843Y313192D01*
X374894Y311243D01*
X374894Y309294D01*
X376843Y307345D01*
X382690Y307345D01*
X367035Y259852D02*
X368984Y257903D01*
X367035Y259852D02*
X363137Y259852D01*
X361188Y257903D01*
X361188Y250107D01*
X363137Y248158D01*
X367035Y248158D01*
X368984Y250107D01*
X372882Y259852D02*
X380678Y259852D01*
X372882Y259852D02*
X372882Y254005D01*
X376780Y255954D01*
X378729Y255954D01*
X380678Y254005D01*
X380678Y250107D01*
X378729Y248158D01*
X374831Y248158D01*
X372882Y250107D01*
D10*
X426320Y212400D02*
X461320Y212400D01*
X461320Y92400D01*
X426320Y92400D01*
X376320Y212400D02*
X341320Y212400D01*
X341320Y92400D01*
X376320Y92400D01*
D12*
X360680Y62230D02*
X360680Y49530D01*
X354330Y43180D01*
X341630Y43180D01*
X335280Y49530D01*
X341630Y68580D02*
X354330Y68580D01*
X360680Y62230D01*
X341630Y68580D02*
X335280Y62230D01*
X335280Y49530D01*
X354330Y43180D02*
X360680Y36830D01*
X360680Y24130D01*
X354330Y17780D01*
X341630Y17780D01*
X335280Y24130D01*
X335280Y36830D01*
X341630Y43180D01*
D10*
X368800Y-47132D02*
X366893Y-49039D01*
X366893Y-52852D01*
X368800Y-54759D01*
X376426Y-54759D01*
X378333Y-52852D01*
X378333Y-49039D01*
X376426Y-47132D01*
X366893Y-41158D02*
X366893Y-37345D01*
X366893Y-41158D02*
X368800Y-43065D01*
X376426Y-43065D01*
X378333Y-41158D01*
X378333Y-37345D01*
X376426Y-35438D01*
X368800Y-35438D01*
X366893Y-37345D01*
X366893Y-31371D02*
X378333Y-31371D01*
X378333Y-23745D02*
X366893Y-31371D01*
X366893Y-23745D02*
X378333Y-23745D01*
X378333Y-19677D02*
X366893Y-19677D01*
X366893Y-12051D01*
X372613Y-15864D02*
X372613Y-19677D01*
X378333Y-7983D02*
X378333Y-4170D01*
X378333Y-6076D02*
X366893Y-6076D01*
X366893Y-4170D02*
X366893Y-7983D01*
X366893Y5533D02*
X368800Y7439D01*
X366893Y5533D02*
X366893Y1720D01*
X368800Y-187D01*
X376426Y-187D01*
X378333Y1720D01*
X378333Y5533D01*
X376426Y7439D01*
X372613Y7439D01*
X372613Y3626D01*
X380240Y11507D02*
X380240Y19133D01*
X378333Y23201D02*
X366893Y23201D01*
X378333Y23201D02*
X378333Y30827D01*
X366893Y36801D02*
X366893Y40615D01*
X366893Y36801D02*
X368800Y34895D01*
X376426Y34895D01*
X378333Y36801D01*
X378333Y40615D01*
X376426Y42521D01*
X368800Y42521D01*
X366893Y40615D01*
X366893Y52309D02*
X368800Y54215D01*
X366893Y52309D02*
X366893Y48495D01*
X368800Y46589D01*
X376426Y46589D01*
X378333Y48495D01*
X378333Y52309D01*
X376426Y54215D01*
X378333Y58283D02*
X366893Y58283D01*
X366893Y65909D02*
X374520Y58283D01*
X372613Y60189D02*
X378333Y65909D01*
X552200Y83180D02*
X552200Y13180D01*
X552200Y83180D02*
X362200Y83180D01*
X362200Y13180D01*
X552200Y13180D01*
M02*
