G04 EAGLE Gerber RS-274X export*
G75*
%MOMM*%
%FSLAX34Y34*%
%LPD*%
%INSilkscreen Bottom*%
%IPPOS*%
%AMOC8*
5,1,8,0,0,1.08239X$1,22.5*%
G01*
%ADD10C,0.152400*%
%ADD11C,0.127000*%


D10*
X46990Y431800D02*
X53340Y425450D01*
X53340Y412750D01*
X46990Y406400D01*
X53340Y400050D01*
X53340Y387350D01*
X46990Y381000D01*
X53340Y374650D01*
X53340Y361950D01*
X46990Y355600D01*
X53340Y349250D01*
X53340Y336550D01*
X46990Y330200D01*
X53340Y323850D01*
X53340Y311150D01*
X46990Y304800D01*
X53340Y298450D01*
X53340Y285750D01*
X46990Y279400D01*
X46990Y431800D02*
X8890Y431800D01*
X2540Y425450D01*
X2540Y412750D01*
X8890Y406400D01*
X2540Y400050D01*
X2540Y387350D01*
X8890Y381000D01*
X2540Y374650D01*
X2540Y361950D01*
X8890Y355600D01*
X2540Y349250D01*
X2540Y336550D01*
X8890Y330200D01*
X2540Y323850D01*
X2540Y311150D01*
X8890Y304800D01*
X2540Y298450D01*
X2540Y285750D01*
X8890Y279400D01*
X2540Y273050D01*
X2540Y260350D01*
X8890Y254000D01*
X2540Y247650D01*
X2540Y234950D01*
X8890Y228600D01*
X2540Y222250D01*
X2540Y209550D01*
X8890Y203200D01*
X2540Y196850D01*
X2540Y184150D01*
X8890Y177800D01*
X2540Y171450D01*
X2540Y158750D01*
X8890Y152400D01*
X2540Y146050D01*
X2540Y133350D01*
X8890Y127000D01*
X2540Y120650D01*
X2540Y107950D01*
X8890Y101600D01*
X2540Y95250D01*
X2540Y82550D01*
X8890Y76200D01*
X2540Y69850D01*
X2540Y57150D01*
X8890Y50800D01*
X2540Y44450D01*
X2540Y31750D01*
X8890Y25400D01*
X2540Y19050D01*
X2540Y6350D01*
X8890Y0D01*
X46990Y0D02*
X53340Y6350D01*
X53340Y19050D01*
X46990Y25400D01*
X53340Y31750D01*
X53340Y44450D01*
X46990Y50800D01*
X53340Y57150D01*
X53340Y69850D01*
X46990Y76200D01*
X53340Y82550D01*
X53340Y95250D01*
X46990Y101600D01*
X53340Y107950D01*
X53340Y120650D01*
X46990Y127000D01*
X53340Y133350D01*
X53340Y146050D01*
X46990Y152400D01*
X53340Y158750D01*
X53340Y171450D01*
X46990Y177800D01*
X53340Y184150D01*
X53340Y196850D01*
X46990Y203200D01*
X53340Y209550D01*
X53340Y222250D01*
X46990Y228600D01*
X53340Y234950D01*
X53340Y247650D01*
X46990Y254000D01*
X53340Y260350D01*
X53340Y273050D01*
X46990Y279400D01*
X46990Y406400D02*
X8890Y406400D01*
X8890Y381000D02*
X46990Y381000D01*
X46990Y355600D02*
X8890Y355600D01*
X8890Y330200D02*
X46990Y330200D01*
X46990Y304800D02*
X8890Y304800D01*
X8890Y279400D02*
X46990Y279400D01*
X46990Y254000D02*
X8890Y254000D01*
X8890Y228600D02*
X46990Y228600D01*
X46990Y203200D02*
X8890Y203200D01*
X8890Y177800D02*
X46990Y177800D01*
X46990Y152400D02*
X8890Y152400D01*
X8890Y127000D02*
X46990Y127000D01*
X46990Y101600D02*
X8890Y101600D01*
X8890Y76200D02*
X46990Y76200D01*
X46990Y50800D02*
X8890Y50800D01*
X8890Y25400D02*
X46990Y25400D01*
X46990Y0D02*
X8890Y0D01*
D11*
X-6342Y315495D02*
X-13968Y315495D01*
X-6342Y315495D02*
X-4435Y317402D01*
X-4435Y321215D01*
X-6342Y323122D01*
X-13968Y323122D01*
X-15875Y321215D01*
X-15875Y317402D01*
X-13968Y315495D01*
X-12062Y319308D02*
X-15875Y323122D01*
X-15875Y327189D02*
X-4435Y327189D01*
X-15875Y327189D02*
X-15875Y332909D01*
X-13968Y334816D01*
X-6342Y334816D01*
X-4435Y332909D01*
X-4435Y327189D01*
X-4435Y342696D02*
X-15875Y342696D01*
X-4435Y338883D02*
X-4435Y346510D01*
X-4435Y350577D02*
X-4435Y358203D01*
X-4435Y350577D02*
X-15875Y350577D01*
X-15875Y358203D01*
X-10155Y354390D02*
X-10155Y350577D01*
X-4435Y367991D02*
X-6342Y369897D01*
X-4435Y367991D02*
X-4435Y364178D01*
X-6342Y362271D01*
X-13968Y362271D01*
X-15875Y364178D01*
X-15875Y367991D01*
X-13968Y369897D01*
X-15875Y373965D02*
X-4435Y373965D01*
X-10155Y373965D02*
X-10155Y381591D01*
X-4435Y381591D02*
X-15875Y381591D01*
X-17782Y385659D02*
X-17782Y393285D01*
X-15875Y397353D02*
X-4435Y397353D01*
X-15875Y397353D02*
X-15875Y404979D01*
X-4435Y414767D02*
X-6342Y416673D01*
X-4435Y414767D02*
X-4435Y410953D01*
X-6342Y409047D01*
X-13968Y409047D01*
X-15875Y410953D01*
X-15875Y414767D01*
X-13968Y416673D01*
X-15875Y420741D02*
X-4435Y420741D01*
X-15875Y420741D02*
X-15875Y426461D01*
X-13968Y428367D01*
X-6342Y428367D01*
X-4435Y426461D01*
X-4435Y420741D01*
M02*
