G04 EAGLE Gerber RS-274X export*
G75*
%MOMM*%
%FSLAX34Y34*%
%LPD*%
%INSoldermask Top*%
%IPPOS*%
%AMOC8*
5,1,8,0,0,1.08239X$1,22.5*%
G01*
%ADD10C,3.203200*%
%ADD11R,0.762000X1.397000*%
%ADD12R,1.397000X0.762000*%
%ADD13R,1.703200X1.503200*%
%ADD14R,2.006200X1.803200*%
%ADD15R,1.603200X2.103200*%
%ADD16R,1.803200X2.003200*%
%ADD17C,1.727200*%
%ADD18R,0.914400X1.727200*%
%ADD19R,0.903200X1.303200*%
%ADD20R,2.203200X3.003200*%
%ADD21R,0.900000X1.300000*%
%ADD22R,1.603200X1.603200*%
%ADD23R,1.803200X1.803200*%
%ADD24P,1.869504X8X292.500000*%
%ADD25R,4.203200X1.403200*%
%ADD26R,2.153200X2.153200*%
%ADD27C,1.209600*%


D10*
X533400Y132080D03*
D11*
G36*
X180017Y113252D02*
X185405Y107864D01*
X175527Y97986D01*
X170139Y103374D01*
X180017Y113252D01*
G37*
G36*
X174360Y118909D02*
X179748Y113521D01*
X169870Y103643D01*
X164482Y109031D01*
X174360Y118909D01*
G37*
G36*
X168703Y124566D02*
X174091Y119178D01*
X164213Y109300D01*
X158825Y114688D01*
X168703Y124566D01*
G37*
G36*
X163047Y130223D02*
X168435Y124835D01*
X158557Y114957D01*
X153169Y120345D01*
X163047Y130223D01*
G37*
G36*
X157390Y135880D02*
X162778Y130492D01*
X152900Y120614D01*
X147512Y126002D01*
X157390Y135880D01*
G37*
G36*
X151733Y141537D02*
X157121Y136149D01*
X147243Y126271D01*
X141855Y131659D01*
X151733Y141537D01*
G37*
G36*
X146076Y147193D02*
X151464Y141805D01*
X141586Y131927D01*
X136198Y137315D01*
X146076Y147193D01*
G37*
G36*
X140419Y152850D02*
X145807Y147462D01*
X135929Y137584D01*
X130541Y142972D01*
X140419Y152850D01*
G37*
G36*
X134762Y158507D02*
X140150Y153119D01*
X130272Y143241D01*
X124884Y148629D01*
X134762Y158507D01*
G37*
G36*
X129105Y164164D02*
X134493Y158776D01*
X124615Y148898D01*
X119227Y154286D01*
X129105Y164164D01*
G37*
G36*
X123449Y169821D02*
X128837Y164433D01*
X118959Y154555D01*
X113571Y159943D01*
X123449Y169821D01*
G37*
G36*
X117792Y175478D02*
X123180Y170090D01*
X113302Y160212D01*
X107914Y165600D01*
X117792Y175478D01*
G37*
G36*
X112135Y181135D02*
X117523Y175747D01*
X107645Y165869D01*
X102257Y171257D01*
X112135Y181135D01*
G37*
G36*
X106478Y186791D02*
X111866Y181403D01*
X101988Y171525D01*
X96600Y176913D01*
X106478Y186791D01*
G37*
G36*
X100821Y192448D02*
X106209Y187060D01*
X96331Y177182D01*
X90943Y182570D01*
X100821Y192448D01*
G37*
G36*
X95164Y198105D02*
X100552Y192717D01*
X90674Y182839D01*
X85286Y188227D01*
X95164Y198105D01*
G37*
D12*
G36*
X240581Y152850D02*
X250459Y142972D01*
X245071Y137584D01*
X235193Y147462D01*
X240581Y152850D01*
G37*
G36*
X234924Y147193D02*
X244802Y137315D01*
X239414Y131927D01*
X229536Y141805D01*
X234924Y147193D01*
G37*
G36*
X229267Y141537D02*
X239145Y131659D01*
X233757Y126271D01*
X223879Y136149D01*
X229267Y141537D01*
G37*
G36*
X223610Y135880D02*
X233488Y126002D01*
X228100Y120614D01*
X218222Y130492D01*
X223610Y135880D01*
G37*
G36*
X217953Y130223D02*
X227831Y120345D01*
X222443Y114957D01*
X212565Y124835D01*
X217953Y130223D01*
G37*
G36*
X212297Y124566D02*
X222175Y114688D01*
X216787Y109300D01*
X206909Y119178D01*
X212297Y124566D01*
G37*
G36*
X206640Y118909D02*
X216518Y109031D01*
X211130Y103643D01*
X201252Y113521D01*
X206640Y118909D01*
G37*
G36*
X200983Y113252D02*
X210861Y103374D01*
X205473Y97986D01*
X195595Y107864D01*
X200983Y113252D01*
G37*
G36*
X246238Y158507D02*
X256116Y148629D01*
X250728Y143241D01*
X240850Y153119D01*
X246238Y158507D01*
G37*
G36*
X251895Y164164D02*
X261773Y154286D01*
X256385Y148898D01*
X246507Y158776D01*
X251895Y164164D01*
G37*
G36*
X257551Y169821D02*
X267429Y159943D01*
X262041Y154555D01*
X252163Y164433D01*
X257551Y169821D01*
G37*
G36*
X263208Y175478D02*
X273086Y165600D01*
X267698Y160212D01*
X257820Y170090D01*
X263208Y175478D01*
G37*
G36*
X268865Y181135D02*
X278743Y171257D01*
X273355Y165869D01*
X263477Y175747D01*
X268865Y181135D01*
G37*
G36*
X274522Y186791D02*
X284400Y176913D01*
X279012Y171525D01*
X269134Y181403D01*
X274522Y186791D01*
G37*
G36*
X280179Y192448D02*
X290057Y182570D01*
X284669Y177182D01*
X274791Y187060D01*
X280179Y192448D01*
G37*
G36*
X285836Y198105D02*
X295714Y188227D01*
X290326Y182839D01*
X280448Y192717D01*
X285836Y198105D01*
G37*
D11*
G36*
X290326Y223561D02*
X295714Y218173D01*
X285836Y208295D01*
X280448Y213683D01*
X290326Y223561D01*
G37*
G36*
X284669Y229218D02*
X290057Y223830D01*
X280179Y213952D01*
X274791Y219340D01*
X284669Y229218D01*
G37*
G36*
X279012Y234875D02*
X284400Y229487D01*
X274522Y219609D01*
X269134Y224997D01*
X279012Y234875D01*
G37*
G36*
X273355Y240531D02*
X278743Y235143D01*
X268865Y225265D01*
X263477Y230653D01*
X273355Y240531D01*
G37*
G36*
X267698Y246188D02*
X273086Y240800D01*
X263208Y230922D01*
X257820Y236310D01*
X267698Y246188D01*
G37*
G36*
X262041Y251845D02*
X267429Y246457D01*
X257551Y236579D01*
X252163Y241967D01*
X262041Y251845D01*
G37*
G36*
X256385Y257502D02*
X261773Y252114D01*
X251895Y242236D01*
X246507Y247624D01*
X256385Y257502D01*
G37*
G36*
X250728Y263159D02*
X256116Y257771D01*
X246238Y247893D01*
X240850Y253281D01*
X250728Y263159D01*
G37*
G36*
X245071Y268816D02*
X250459Y263428D01*
X240581Y253550D01*
X235193Y258938D01*
X245071Y268816D01*
G37*
G36*
X239414Y274473D02*
X244802Y269085D01*
X234924Y259207D01*
X229536Y264595D01*
X239414Y274473D01*
G37*
G36*
X233757Y280129D02*
X239145Y274741D01*
X229267Y264863D01*
X223879Y270251D01*
X233757Y280129D01*
G37*
G36*
X228100Y285786D02*
X233488Y280398D01*
X223610Y270520D01*
X218222Y275908D01*
X228100Y285786D01*
G37*
G36*
X222443Y291443D02*
X227831Y286055D01*
X217953Y276177D01*
X212565Y281565D01*
X222443Y291443D01*
G37*
G36*
X216787Y297100D02*
X222175Y291712D01*
X212297Y281834D01*
X206909Y287222D01*
X216787Y297100D01*
G37*
G36*
X211130Y302757D02*
X216518Y297369D01*
X206640Y287491D01*
X201252Y292879D01*
X211130Y302757D01*
G37*
G36*
X205473Y308414D02*
X210861Y303026D01*
X200983Y293148D01*
X195595Y298536D01*
X205473Y308414D01*
G37*
D12*
G36*
X175527Y308414D02*
X185405Y298536D01*
X180017Y293148D01*
X170139Y303026D01*
X175527Y308414D01*
G37*
G36*
X169870Y302757D02*
X179748Y292879D01*
X174360Y287491D01*
X164482Y297369D01*
X169870Y302757D01*
G37*
G36*
X164213Y297100D02*
X174091Y287222D01*
X168703Y281834D01*
X158825Y291712D01*
X164213Y297100D01*
G37*
G36*
X158557Y291443D02*
X168435Y281565D01*
X163047Y276177D01*
X153169Y286055D01*
X158557Y291443D01*
G37*
G36*
X152900Y285786D02*
X162778Y275908D01*
X157390Y270520D01*
X147512Y280398D01*
X152900Y285786D01*
G37*
G36*
X147243Y280129D02*
X157121Y270251D01*
X151733Y264863D01*
X141855Y274741D01*
X147243Y280129D01*
G37*
G36*
X141586Y274473D02*
X151464Y264595D01*
X146076Y259207D01*
X136198Y269085D01*
X141586Y274473D01*
G37*
G36*
X135929Y268816D02*
X145807Y258938D01*
X140419Y253550D01*
X130541Y263428D01*
X135929Y268816D01*
G37*
G36*
X130272Y263159D02*
X140150Y253281D01*
X134762Y247893D01*
X124884Y257771D01*
X130272Y263159D01*
G37*
G36*
X124615Y257502D02*
X134493Y247624D01*
X129105Y242236D01*
X119227Y252114D01*
X124615Y257502D01*
G37*
G36*
X118959Y251845D02*
X128837Y241967D01*
X123449Y236579D01*
X113571Y246457D01*
X118959Y251845D01*
G37*
G36*
X113302Y246188D02*
X123180Y236310D01*
X117792Y230922D01*
X107914Y240800D01*
X113302Y246188D01*
G37*
G36*
X107645Y240531D02*
X117523Y230653D01*
X112135Y225265D01*
X102257Y235143D01*
X107645Y240531D01*
G37*
G36*
X101988Y234875D02*
X111866Y224997D01*
X106478Y219609D01*
X96600Y229487D01*
X101988Y234875D01*
G37*
G36*
X96331Y229218D02*
X106209Y219340D01*
X100821Y213952D01*
X90943Y223830D01*
X96331Y229218D01*
G37*
G36*
X90674Y223561D02*
X100552Y213683D01*
X95164Y208295D01*
X85286Y218173D01*
X90674Y223561D01*
G37*
D13*
X312420Y309000D03*
X312420Y326000D03*
D14*
X482600Y315980D03*
X482600Y344420D03*
D13*
X312420Y280280D03*
X312420Y263280D03*
D15*
X292670Y272640D03*
X292670Y316640D03*
X268670Y316640D03*
X268670Y272640D03*
D16*
G36*
X282958Y85914D02*
X270208Y73164D01*
X256044Y87328D01*
X268794Y100078D01*
X282958Y85914D01*
G37*
G36*
X302756Y105712D02*
X290006Y92962D01*
X275842Y107126D01*
X288592Y119876D01*
X302756Y105712D01*
G37*
D17*
X290229Y139753D02*
X279453Y150529D01*
X261492Y132569D02*
X272269Y121792D01*
X254308Y103832D02*
X243532Y114608D01*
X225571Y96648D02*
X236348Y85871D01*
X218387Y67911D02*
X207611Y78687D01*
D18*
X527050Y281940D03*
X514350Y281940D03*
X501650Y281940D03*
X488950Y281940D03*
X488950Y226060D03*
X501650Y226060D03*
X514350Y226060D03*
X527050Y226060D03*
D19*
X388380Y269520D03*
X358380Y269520D03*
D20*
X373380Y296020D03*
D21*
X373380Y269520D03*
D19*
X414260Y314680D03*
X444260Y314680D03*
D20*
X429260Y288180D03*
D21*
X429260Y314680D03*
D22*
X410260Y236220D03*
X448260Y236220D03*
D14*
X508000Y315980D03*
X508000Y344420D03*
X533400Y344420D03*
X533400Y315980D03*
D16*
X415260Y337820D03*
X443260Y337820D03*
D17*
X558800Y55880D02*
X574040Y55880D01*
X574040Y30480D02*
X558800Y30480D01*
D14*
X574040Y82300D03*
X574040Y110740D03*
D23*
X446260Y259080D03*
X412260Y259080D03*
D24*
X40640Y419100D03*
X15240Y419100D03*
X40640Y393700D03*
X15240Y393700D03*
X40640Y368300D03*
X15240Y368300D03*
X40640Y342900D03*
X15240Y342900D03*
X40640Y317500D03*
X15240Y317500D03*
X40640Y292100D03*
X15240Y292100D03*
X40640Y266700D03*
X15240Y266700D03*
X40640Y241300D03*
X15240Y241300D03*
X40640Y215900D03*
X15240Y215900D03*
X40640Y190500D03*
X15240Y190500D03*
X40640Y165100D03*
X15240Y165100D03*
X40640Y139700D03*
X15240Y139700D03*
X40640Y114300D03*
X15240Y114300D03*
X40640Y88900D03*
X15240Y88900D03*
X40640Y63500D03*
X15240Y63500D03*
X40640Y38100D03*
X15240Y38100D03*
X40640Y12700D03*
X15240Y12700D03*
D16*
X387380Y325120D03*
X359380Y325120D03*
X359380Y236220D03*
X387380Y236220D03*
D25*
X401320Y208400D03*
X401320Y96400D03*
D17*
X355600Y55880D02*
X340360Y55880D01*
X340360Y30480D02*
X355600Y30480D01*
D26*
X527200Y43180D03*
X492200Y43180D03*
X457200Y43180D03*
X422200Y43180D03*
X387200Y43180D03*
D27*
X516890Y254000D03*
X396240Y345440D03*
X245110Y233680D03*
X189230Y123190D03*
X133350Y176530D03*
X312420Y294640D03*
X469900Y100480D03*
M02*
